<mxfile host="app.diagrams.net" modified="2023-12-20T11:28:43.521Z" agent="Mozilla/5.0 (Windows NT 10.0; Win64; x64) AppleWebKit/537.36 (KHTML, like Gecko) Chrome/119.0.0.0 Safari/537.36 OPR/105.0.0.0" etag="fe6slPAkzuLzHBEVABEx" version="22.1.11" type="device">
  <diagram name="Page-1" id="8378b5f6-a2b2-b727-a746-972ab9d02e00">
    <mxGraphModel dx="4071" dy="1816" grid="1" gridSize="10" guides="1" tooltips="1" connect="0" arrows="1" fold="1" page="1" pageScale="1.5" pageWidth="1169" pageHeight="827" background="none" math="0" shadow="0">
      <root>
        <mxCell id="0" />
        <mxCell id="1" parent="0" />
        <mxCell id="E6Fm2i0nhL4S2BmNDyQJ-749" value="" style="group;movable=0;resizable=0;rotatable=0;deletable=0;editable=0;locked=1;connectable=0;" vertex="1" connectable="0" parent="1">
          <mxGeometry x="686" y="340" width="2095.67" height="600" as="geometry" />
        </mxCell>
        <mxCell id="E6Fm2i0nhL4S2BmNDyQJ-545" value="" style="group;movable=1;resizable=1;rotatable=1;deletable=1;editable=1;locked=0;connectable=1;" vertex="1" connectable="0" parent="E6Fm2i0nhL4S2BmNDyQJ-749">
          <mxGeometry width="980" height="600" as="geometry" />
        </mxCell>
        <mxCell id="68" value="" style="strokeColor=#DEEDFF" parent="E6Fm2i0nhL4S2BmNDyQJ-545" vertex="1">
          <mxGeometry width="19.999999999999996" height="599.999999999958" as="geometry" />
        </mxCell>
        <mxCell id="194" value="" style="strokeColor=#DEEDFF" parent="E6Fm2i0nhL4S2BmNDyQJ-545" vertex="1">
          <mxGeometry x="20.00000000000005" y="4.1750511094317604e-12" width="19.999999999999996" height="599.999999999958" as="geometry" />
        </mxCell>
        <mxCell id="195" value="" style="strokeColor=#DEEDFF" parent="E6Fm2i0nhL4S2BmNDyQJ-545" vertex="1">
          <mxGeometry x="39.999999999999986" y="4.1750511094317604e-12" width="19.999999999999996" height="599.999999999958" as="geometry" />
        </mxCell>
        <mxCell id="196" value="" style="strokeColor=#DEEDFF" parent="E6Fm2i0nhL4S2BmNDyQJ-545" vertex="1">
          <mxGeometry x="60.00000000000003" y="4.1750511094317604e-12" width="19.999999999999996" height="599.999999999958" as="geometry" />
        </mxCell>
        <mxCell id="197" value="" style="strokeColor=#DEEDFF" parent="E6Fm2i0nhL4S2BmNDyQJ-545" vertex="1">
          <mxGeometry x="79.99999999999997" y="4.1750511094317604e-12" width="19.999999999999996" height="599.999999999958" as="geometry" />
        </mxCell>
        <mxCell id="198" value="" style="strokeColor=#DEEDFF;fillColor=#D4E1FF" parent="E6Fm2i0nhL4S2BmNDyQJ-545" vertex="1">
          <mxGeometry x="100.00000000000001" y="8.408905755616083e-12" width="19.999999999999996" height="599.999999999958" as="geometry" />
        </mxCell>
        <mxCell id="199" value="" style="strokeColor=#DEEDFF;fillColor=#D4E1FF" parent="E6Fm2i0nhL4S2BmNDyQJ-545" vertex="1">
          <mxGeometry x="119.99999999999994" y="8.408905755616083e-12" width="19.999999999999996" height="599.999999999958" as="geometry" />
        </mxCell>
        <mxCell id="200" value="" style="strokeColor=#DEEDFF" parent="E6Fm2i0nhL4S2BmNDyQJ-545" vertex="1">
          <mxGeometry x="140.00000000000003" y="8.408905755616083e-12" width="19.999999999999996" height="599.999999999958" as="geometry" />
        </mxCell>
        <mxCell id="201" value="" style="strokeColor=#DEEDFF" parent="E6Fm2i0nhL4S2BmNDyQJ-545" vertex="1">
          <mxGeometry x="159.9999999999995" y="8.408905755616083e-12" width="19.999999999999996" height="599.999999999958" as="geometry" />
        </mxCell>
        <mxCell id="202" value="" style="strokeColor=#DEEDFF" parent="E6Fm2i0nhL4S2BmNDyQJ-545" vertex="1">
          <mxGeometry x="179.99999999999955" y="1.2583956865047843e-11" width="19.999999999999996" height="599.999999999958" as="geometry" />
        </mxCell>
        <mxCell id="203" value="" style="strokeColor=#DEEDFF" parent="E6Fm2i0nhL4S2BmNDyQJ-545" vertex="1">
          <mxGeometry x="199.99999999999957" y="1.2583956865047843e-11" width="19.999999999999996" height="599.999999999958" as="geometry" />
        </mxCell>
        <mxCell id="204" value="" style="strokeColor=#DEEDFF" parent="E6Fm2i0nhL4S2BmNDyQJ-545" vertex="1">
          <mxGeometry x="219.99999999999952" y="1.2583956865047843e-11" width="19.999999999999996" height="599.999999999958" as="geometry" />
        </mxCell>
        <mxCell id="205" value="" style="strokeColor=#DEEDFF;fillColor=#D4E1FF" parent="E6Fm2i0nhL4S2BmNDyQJ-545" vertex="1">
          <mxGeometry x="239.99999999999966" y="1.2583956865047843e-11" width="19.999999999999996" height="599.999999999958" as="geometry" />
        </mxCell>
        <mxCell id="206" value="" style="strokeColor=#DEEDFF;fillColor=#D4E1FF" parent="E6Fm2i0nhL4S2BmNDyQJ-545" vertex="1">
          <mxGeometry x="259.9999999999998" y="1.6817811511232166e-11" width="19.999999999999996" height="599.999999999958" as="geometry" />
        </mxCell>
        <mxCell id="207" value="" style="strokeColor=#DEEDFF" parent="E6Fm2i0nhL4S2BmNDyQJ-545" vertex="1">
          <mxGeometry x="279.99999999999983" y="1.6817811511232166e-11" width="19.999999999999996" height="599.999999999958" as="geometry" />
        </mxCell>
        <mxCell id="208" value="" style="strokeColor=#DEEDFF" parent="E6Fm2i0nhL4S2BmNDyQJ-545" vertex="1">
          <mxGeometry x="299.9999999999998" y="1.6817811511232166e-11" width="19.999999999999996" height="599.999999999958" as="geometry" />
        </mxCell>
        <mxCell id="209" value="" style="strokeColor=#DEEDFF" parent="E6Fm2i0nhL4S2BmNDyQJ-545" vertex="1">
          <mxGeometry x="319.99999999999966" width="19.999999999999996" height="599.999999999958" as="geometry" />
        </mxCell>
        <mxCell id="210" value="" style="strokeColor=#DEEDFF" parent="E6Fm2i0nhL4S2BmNDyQJ-545" vertex="1">
          <mxGeometry x="339.9999999999997" y="4.1750511094317604e-12" width="19.999999999999996" height="599.999999999958" as="geometry" />
        </mxCell>
        <mxCell id="211" value="" style="strokeColor=#DEEDFF" parent="E6Fm2i0nhL4S2BmNDyQJ-545" vertex="1">
          <mxGeometry x="359.9999999999998" y="4.1750511094317604e-12" width="19.999999999999996" height="599.999999999958" as="geometry" />
        </mxCell>
        <mxCell id="212" value="" style="strokeColor=#DEEDFF;fillColor=#D4E1FF" parent="E6Fm2i0nhL4S2BmNDyQJ-545" vertex="1">
          <mxGeometry x="379.9999999999996" y="4.1750511094317604e-12" width="19.999999999999996" height="599.999999999958" as="geometry" />
        </mxCell>
        <mxCell id="213" value="" style="strokeColor=#DEEDFF;fillColor=#D4E1FF" parent="E6Fm2i0nhL4S2BmNDyQJ-545" vertex="1">
          <mxGeometry x="399.9999999999996" y="1.6817811511232166e-11" width="19.999999999999996" height="599.999999999958" as="geometry" />
        </mxCell>
        <mxCell id="214" value="" style="strokeColor=#DEEDFF" parent="E6Fm2i0nhL4S2BmNDyQJ-545" vertex="1">
          <mxGeometry x="419.99999999999966" y="2.0992862620663926e-11" width="19.999999999999996" height="599.999999999958" as="geometry" />
        </mxCell>
        <mxCell id="215" value="" style="strokeColor=#DEEDFF" parent="E6Fm2i0nhL4S2BmNDyQJ-545" vertex="1">
          <mxGeometry x="439.9999999999997" y="2.0992862620663926e-11" width="19.999999999999996" height="599.999999999958" as="geometry" />
        </mxCell>
        <mxCell id="216" value="" style="strokeColor=#DEEDFF" parent="E6Fm2i0nhL4S2BmNDyQJ-545" vertex="1">
          <mxGeometry x="459.9999999999997" y="2.0992862620663926e-11" width="19.999999999999996" height="599.999999999958" as="geometry" />
        </mxCell>
        <mxCell id="217" value="" style="strokeColor=#DEEDFF" parent="E6Fm2i0nhL4S2BmNDyQJ-545" vertex="1">
          <mxGeometry x="479.9999999999998" y="2.0992862620663926e-11" width="19.999999999999996" height="599.999999999958" as="geometry" />
        </mxCell>
        <mxCell id="218" value="" style="strokeColor=#DEEDFF" parent="E6Fm2i0nhL4S2BmNDyQJ-545" vertex="1">
          <mxGeometry x="499.99999999999983" y="2.5167913730095687e-11" width="19.999999999999996" height="599.999999999958" as="geometry" />
        </mxCell>
        <mxCell id="219" value="" style="strokeColor=#DEEDFF;fillColor=#D4E1FF" parent="E6Fm2i0nhL4S2BmNDyQJ-545" vertex="1">
          <mxGeometry x="520" y="2.5167913730095687e-11" width="19.999999999999996" height="599.999999999958" as="geometry" />
        </mxCell>
        <mxCell id="220" value="" style="strokeColor=#DEEDFF;fillColor=#D4E1FF" parent="E6Fm2i0nhL4S2BmNDyQJ-545" vertex="1">
          <mxGeometry x="540.0000000000001" y="2.5167913730095687e-11" width="19.999999999999996" height="599.999999999958" as="geometry" />
        </mxCell>
        <mxCell id="221" value="" style="strokeColor=#DEEDFF" parent="E6Fm2i0nhL4S2BmNDyQJ-545" vertex="1">
          <mxGeometry x="560.0000000000001" y="2.5167913730095687e-11" width="19.999999999999996" height="599.999999999958" as="geometry" />
        </mxCell>
        <mxCell id="222" value="" style="strokeColor=#DEEDFF" parent="E6Fm2i0nhL4S2BmNDyQJ-545" vertex="1">
          <mxGeometry x="579.9999999999999" y="2.9401768376280004e-11" width="19.999999999999996" height="599.999999999958" as="geometry" />
        </mxCell>
        <mxCell id="223" value="" style="strokeColor=#DEEDFF" parent="E6Fm2i0nhL4S2BmNDyQJ-545" vertex="1">
          <mxGeometry x="600" y="2.9401768376280004e-11" width="19.999999999999996" height="599.999999999958" as="geometry" />
        </mxCell>
        <mxCell id="224" value="" style="strokeColor=#DEEDFF" parent="E6Fm2i0nhL4S2BmNDyQJ-545" vertex="1">
          <mxGeometry x="619.9999999999998" y="2.9401768376280004e-11" width="19.999999999999996" height="599.999999999958" as="geometry" />
        </mxCell>
        <mxCell id="225" value="" style="strokeColor=#DEEDFF" parent="E6Fm2i0nhL4S2BmNDyQJ-545" vertex="1">
          <mxGeometry x="639.9999999999993" y="2.9401768376280004e-11" width="19.999999999999996" height="599.999999999958" as="geometry" />
        </mxCell>
        <mxCell id="226" value="" style="strokeColor=#DEEDFF;fillColor=#D4E1FF" parent="E6Fm2i0nhL4S2BmNDyQJ-545" vertex="1">
          <mxGeometry x="659.9999999999994" y="3.357681948571177e-11" width="19.999999999999996" height="599.999999999958" as="geometry" />
        </mxCell>
        <mxCell id="227" value="" style="strokeColor=#DEEDFF;fillColor=#D4E1FF" parent="E6Fm2i0nhL4S2BmNDyQJ-545" vertex="1">
          <mxGeometry x="679.9999999999994" y="3.357681948571177e-11" width="19.999999999999996" height="599.999999999958" as="geometry" />
        </mxCell>
        <mxCell id="228" value="" style="strokeColor=#DEEDFF" parent="E6Fm2i0nhL4S2BmNDyQJ-545" vertex="1">
          <mxGeometry x="699.9999999999994" y="3.357681948571177e-11" width="19.999999999999996" height="599.999999999958" as="geometry" />
        </mxCell>
        <mxCell id="229" value="" style="strokeColor=#DEEDFF" parent="E6Fm2i0nhL4S2BmNDyQJ-545" vertex="1">
          <mxGeometry x="719.9999999999995" y="3.357681948571177e-11" width="19.999999999999996" height="599.999999999958" as="geometry" />
        </mxCell>
        <mxCell id="230" value="" style="strokeColor=#DEEDFF" parent="E6Fm2i0nhL4S2BmNDyQJ-545" vertex="1">
          <mxGeometry x="739.9999999999993" y="3.775187059514353e-11" width="19.999999999999996" height="599.999999999958" as="geometry" />
        </mxCell>
        <mxCell id="231" value="" style="strokeColor=#DEEDFF" parent="E6Fm2i0nhL4S2BmNDyQJ-545" vertex="1">
          <mxGeometry x="759.9999999999994" y="3.775187059514353e-11" width="19.999999999999996" height="599.999999999958" as="geometry" />
        </mxCell>
        <mxCell id="232" value="" style="strokeColor=#DEEDFF" parent="E6Fm2i0nhL4S2BmNDyQJ-545" vertex="1">
          <mxGeometry x="779.9999999999994" y="3.775187059514353e-11" width="19.999999999999996" height="599.999999999958" as="geometry" />
        </mxCell>
        <mxCell id="233" value="" style="strokeColor=#DEEDFF;fillColor=#D4E1FF" parent="E6Fm2i0nhL4S2BmNDyQJ-545" vertex="1">
          <mxGeometry x="799.9999999999994" y="2.0992862620663926e-11" width="19.999999999999996" height="599.999999999958" as="geometry" />
        </mxCell>
        <mxCell id="234" value="" style="strokeColor=#DEEDFF;fillColor=#D4E1FF" parent="E6Fm2i0nhL4S2BmNDyQJ-545" vertex="1">
          <mxGeometry x="819.9999999999993" y="2.5167913730095687e-11" width="19.999999999999996" height="599.999999999958" as="geometry" />
        </mxCell>
        <mxCell id="235" value="" style="strokeColor=#DEEDFF" parent="E6Fm2i0nhL4S2BmNDyQJ-545" vertex="1">
          <mxGeometry x="839.9999999999993" y="2.5167913730095687e-11" width="19.999999999999996" height="599.999999999958" as="geometry" />
        </mxCell>
        <mxCell id="236" value="" style="strokeColor=#DEEDFF" parent="E6Fm2i0nhL4S2BmNDyQJ-545" vertex="1">
          <mxGeometry x="859.9999999999993" y="2.5167913730095687e-11" width="19.999999999999996" height="599.999999999958" as="geometry" />
        </mxCell>
        <mxCell id="237" value="" style="strokeColor=#DEEDFF" parent="E6Fm2i0nhL4S2BmNDyQJ-545" vertex="1">
          <mxGeometry x="879.9999999999994" y="3.775187059514353e-11" width="19.999999999999996" height="599.999999999958" as="geometry" />
        </mxCell>
        <mxCell id="238" value="" style="strokeColor=#DEEDFF" parent="E6Fm2i0nhL4S2BmNDyQJ-545" vertex="1">
          <mxGeometry x="899.9999999999994" y="4.198572524132785e-11" width="19.999999999999996" height="599.999999999958" as="geometry" />
        </mxCell>
        <mxCell id="239" value="" style="strokeColor=#DEEDFF" parent="E6Fm2i0nhL4S2BmNDyQJ-545" vertex="1">
          <mxGeometry x="919.9999999999994" y="4.198572524132785e-11" width="19.999999999999996" height="599.999999999958" as="geometry" />
        </mxCell>
        <mxCell id="240" value="" style="strokeColor=#DEEDFF;fillColor=#D4E1FF" parent="E6Fm2i0nhL4S2BmNDyQJ-545" vertex="1">
          <mxGeometry x="939.9999999999993" y="4.198572524132785e-11" width="19.999999999999996" height="599.999999999958" as="geometry" />
        </mxCell>
        <mxCell id="241" value="" style="strokeColor=#DEEDFF;fillColor=#D4E1FF" parent="E6Fm2i0nhL4S2BmNDyQJ-545" vertex="1">
          <mxGeometry x="959.9999999999995" y="4.198572524132785e-11" width="19.999999999999996" height="599.999999999958" as="geometry" />
        </mxCell>
        <mxCell id="E6Fm2i0nhL4S2BmNDyQJ-538" value="" style="group;movable=1;resizable=1;rotatable=1;deletable=1;editable=1;locked=0;connectable=1;" vertex="1" connectable="0" parent="E6Fm2i0nhL4S2BmNDyQJ-749">
          <mxGeometry x="1960.5" width="135.17" height="600" as="geometry" />
        </mxCell>
        <mxCell id="E6Fm2i0nhL4S2BmNDyQJ-489" value="" style="strokeColor=#DEEDFF" vertex="1" parent="E6Fm2i0nhL4S2BmNDyQJ-538">
          <mxGeometry width="19.310000000000002" height="599.9999999999916" as="geometry" />
        </mxCell>
        <mxCell id="E6Fm2i0nhL4S2BmNDyQJ-490" value="" style="strokeColor=#DEEDFF" vertex="1" parent="E6Fm2i0nhL4S2BmNDyQJ-538">
          <mxGeometry x="19.31" y="4.1750511094319955e-12" width="19.310000000000002" height="599.9999999999916" as="geometry" />
        </mxCell>
        <mxCell id="E6Fm2i0nhL4S2BmNDyQJ-491" value="" style="strokeColor=#DEEDFF" vertex="1" parent="E6Fm2i0nhL4S2BmNDyQJ-538">
          <mxGeometry x="38.62" y="4.1750511094319955e-12" width="19.310000000000002" height="599.9999999999916" as="geometry" />
        </mxCell>
        <mxCell id="E6Fm2i0nhL4S2BmNDyQJ-492" value="" style="strokeColor=#DEEDFF" vertex="1" parent="E6Fm2i0nhL4S2BmNDyQJ-538">
          <mxGeometry x="57.92999999999999" y="4.1750511094319955e-12" width="19.310000000000002" height="599.9999999999916" as="geometry" />
        </mxCell>
        <mxCell id="E6Fm2i0nhL4S2BmNDyQJ-493" value="" style="strokeColor=#DEEDFF" vertex="1" parent="E6Fm2i0nhL4S2BmNDyQJ-538">
          <mxGeometry x="77.24" y="4.1750511094319955e-12" width="19.310000000000002" height="599.9999999999916" as="geometry" />
        </mxCell>
        <mxCell id="E6Fm2i0nhL4S2BmNDyQJ-494" value="" style="strokeColor=#DEEDFF;fillColor=#D4E1FF" vertex="1" parent="E6Fm2i0nhL4S2BmNDyQJ-538">
          <mxGeometry x="96.55" y="8.408905755616553e-12" width="19.310000000000002" height="599.9999999999916" as="geometry" />
        </mxCell>
        <mxCell id="E6Fm2i0nhL4S2BmNDyQJ-495" value="" style="strokeColor=#DEEDFF;fillColor=#D4E1FF" vertex="1" parent="E6Fm2i0nhL4S2BmNDyQJ-538">
          <mxGeometry x="115.85999999999999" y="8.408905755616553e-12" width="19.310000000000002" height="599.9999999999916" as="geometry" />
        </mxCell>
        <mxCell id="E6Fm2i0nhL4S2BmNDyQJ-366" value="" style="group;movable=1;resizable=1;rotatable=1;deletable=1;editable=1;locked=0;connectable=1;" vertex="1" connectable="0" parent="E6Fm2i0nhL4S2BmNDyQJ-749">
          <mxGeometry x="980.5" width="980" height="600" as="geometry" />
        </mxCell>
        <mxCell id="E6Fm2i0nhL4S2BmNDyQJ-367" value="" style="strokeColor=#DEEDFF" vertex="1" parent="E6Fm2i0nhL4S2BmNDyQJ-366">
          <mxGeometry width="20.000000000000004" height="599.999999999958" as="geometry" />
        </mxCell>
        <mxCell id="E6Fm2i0nhL4S2BmNDyQJ-368" value="" style="strokeColor=#DEEDFF" vertex="1" parent="E6Fm2i0nhL4S2BmNDyQJ-366">
          <mxGeometry x="20.000000000000004" y="4.197667854336298e-12" width="20.000000000000004" height="599.999999999958" as="geometry" />
        </mxCell>
        <mxCell id="E6Fm2i0nhL4S2BmNDyQJ-369" value="" style="strokeColor=#DEEDFF" vertex="1" parent="E6Fm2i0nhL4S2BmNDyQJ-366">
          <mxGeometry x="40.00000000000001" y="4.197667854336298e-12" width="20.000000000000004" height="599.999999999958" as="geometry" />
        </mxCell>
        <mxCell id="E6Fm2i0nhL4S2BmNDyQJ-370" value="" style="strokeColor=#DEEDFF" vertex="1" parent="E6Fm2i0nhL4S2BmNDyQJ-366">
          <mxGeometry x="60.000000000000014" y="4.197667854336298e-12" width="20.000000000000004" height="599.999999999958" as="geometry" />
        </mxCell>
        <mxCell id="E6Fm2i0nhL4S2BmNDyQJ-371" value="" style="strokeColor=#DEEDFF" vertex="1" parent="E6Fm2i0nhL4S2BmNDyQJ-366">
          <mxGeometry x="80.00000000000001" y="4.197667854336298e-12" width="20.000000000000004" height="599.999999999958" as="geometry" />
        </mxCell>
        <mxCell id="E6Fm2i0nhL4S2BmNDyQJ-372" value="" style="strokeColor=#DEEDFF;fillColor=#D4E1FF" vertex="1" parent="E6Fm2i0nhL4S2BmNDyQJ-366">
          <mxGeometry x="100.00000000000003" y="8.395335708672597e-12" width="20.000000000000004" height="599.999999999958" as="geometry" />
        </mxCell>
        <mxCell id="E6Fm2i0nhL4S2BmNDyQJ-373" value="" style="strokeColor=#DEEDFF;fillColor=#D4E1FF" vertex="1" parent="E6Fm2i0nhL4S2BmNDyQJ-366">
          <mxGeometry x="120.00000000000003" y="8.395335708672597e-12" width="20.000000000000004" height="599.999999999958" as="geometry" />
        </mxCell>
        <mxCell id="E6Fm2i0nhL4S2BmNDyQJ-374" value="" style="strokeColor=#DEEDFF" vertex="1" parent="E6Fm2i0nhL4S2BmNDyQJ-366">
          <mxGeometry x="140.00000000000003" y="8.395335708672597e-12" width="20.000000000000004" height="599.999999999958" as="geometry" />
        </mxCell>
        <mxCell id="E6Fm2i0nhL4S2BmNDyQJ-375" value="" style="strokeColor=#DEEDFF" vertex="1" parent="E6Fm2i0nhL4S2BmNDyQJ-366">
          <mxGeometry x="159.99999999999957" y="8.395335708672597e-12" width="20.000000000000004" height="599.999999999958" as="geometry" />
        </mxCell>
        <mxCell id="E6Fm2i0nhL4S2BmNDyQJ-376" value="" style="strokeColor=#DEEDFF" vertex="1" parent="E6Fm2i0nhL4S2BmNDyQJ-366">
          <mxGeometry x="179.99999999999957" y="1.2593003563008894e-11" width="20.000000000000004" height="599.999999999958" as="geometry" />
        </mxCell>
        <mxCell id="E6Fm2i0nhL4S2BmNDyQJ-377" value="" style="strokeColor=#DEEDFF" vertex="1" parent="E6Fm2i0nhL4S2BmNDyQJ-366">
          <mxGeometry x="199.9999999999996" y="1.2593003563008894e-11" width="20.000000000000004" height="599.999999999958" as="geometry" />
        </mxCell>
        <mxCell id="E6Fm2i0nhL4S2BmNDyQJ-378" value="" style="strokeColor=#DEEDFF" vertex="1" parent="E6Fm2i0nhL4S2BmNDyQJ-366">
          <mxGeometry x="219.9999999999996" y="1.2593003563008894e-11" width="20.000000000000004" height="599.999999999958" as="geometry" />
        </mxCell>
        <mxCell id="E6Fm2i0nhL4S2BmNDyQJ-379" value="" style="strokeColor=#DEEDFF;fillColor=#D4E1FF" vertex="1" parent="E6Fm2i0nhL4S2BmNDyQJ-366">
          <mxGeometry x="239.99999999999983" y="1.2593003563008894e-11" width="20.000000000000004" height="599.999999999958" as="geometry" />
        </mxCell>
        <mxCell id="E6Fm2i0nhL4S2BmNDyQJ-380" value="" style="strokeColor=#DEEDFF;fillColor=#D4E1FF" vertex="1" parent="E6Fm2i0nhL4S2BmNDyQJ-366">
          <mxGeometry x="259.99999999999983" y="1.6790671417345193e-11" width="20.000000000000004" height="599.999999999958" as="geometry" />
        </mxCell>
        <mxCell id="E6Fm2i0nhL4S2BmNDyQJ-381" value="" style="strokeColor=#DEEDFF" vertex="1" parent="E6Fm2i0nhL4S2BmNDyQJ-366">
          <mxGeometry x="279.99999999999983" y="1.6790671417345193e-11" width="20.000000000000004" height="599.999999999958" as="geometry" />
        </mxCell>
        <mxCell id="E6Fm2i0nhL4S2BmNDyQJ-382" value="" style="strokeColor=#DEEDFF" vertex="1" parent="E6Fm2i0nhL4S2BmNDyQJ-366">
          <mxGeometry x="299.99999999999983" y="1.6790671417345193e-11" width="20.000000000000004" height="599.999999999958" as="geometry" />
        </mxCell>
        <mxCell id="E6Fm2i0nhL4S2BmNDyQJ-383" value="" style="strokeColor=#DEEDFF" vertex="1" parent="E6Fm2i0nhL4S2BmNDyQJ-366">
          <mxGeometry x="319.99999999999983" width="20.000000000000004" height="599.999999999958" as="geometry" />
        </mxCell>
        <mxCell id="E6Fm2i0nhL4S2BmNDyQJ-384" value="" style="strokeColor=#DEEDFF" vertex="1" parent="E6Fm2i0nhL4S2BmNDyQJ-366">
          <mxGeometry x="339.99999999999983" y="4.197667854336298e-12" width="20.000000000000004" height="599.999999999958" as="geometry" />
        </mxCell>
        <mxCell id="E6Fm2i0nhL4S2BmNDyQJ-385" value="" style="strokeColor=#DEEDFF" vertex="1" parent="E6Fm2i0nhL4S2BmNDyQJ-366">
          <mxGeometry x="359.99999999999983" y="4.197667854336298e-12" width="20.000000000000004" height="599.999999999958" as="geometry" />
        </mxCell>
        <mxCell id="E6Fm2i0nhL4S2BmNDyQJ-386" value="" style="strokeColor=#DEEDFF;fillColor=#D4E1FF" vertex="1" parent="E6Fm2i0nhL4S2BmNDyQJ-366">
          <mxGeometry x="379.99999999999983" y="4.197667854336298e-12" width="20.000000000000004" height="599.999999999958" as="geometry" />
        </mxCell>
        <mxCell id="E6Fm2i0nhL4S2BmNDyQJ-387" value="" style="strokeColor=#DEEDFF;fillColor=#D4E1FF" vertex="1" parent="E6Fm2i0nhL4S2BmNDyQJ-366">
          <mxGeometry x="399.9999999999999" y="1.6790671417345193e-11" width="20.000000000000004" height="599.999999999958" as="geometry" />
        </mxCell>
        <mxCell id="E6Fm2i0nhL4S2BmNDyQJ-388" value="" style="strokeColor=#DEEDFF" vertex="1" parent="E6Fm2i0nhL4S2BmNDyQJ-366">
          <mxGeometry x="419.9999999999999" y="2.098833927168149e-11" width="20.000000000000004" height="599.999999999958" as="geometry" />
        </mxCell>
        <mxCell id="E6Fm2i0nhL4S2BmNDyQJ-389" value="" style="strokeColor=#DEEDFF" vertex="1" parent="E6Fm2i0nhL4S2BmNDyQJ-366">
          <mxGeometry x="439.9999999999999" y="2.098833927168149e-11" width="20.000000000000004" height="599.999999999958" as="geometry" />
        </mxCell>
        <mxCell id="E6Fm2i0nhL4S2BmNDyQJ-390" value="" style="strokeColor=#DEEDFF" vertex="1" parent="E6Fm2i0nhL4S2BmNDyQJ-366">
          <mxGeometry x="459.9999999999999" y="2.098833927168149e-11" width="20.000000000000004" height="599.999999999958" as="geometry" />
        </mxCell>
        <mxCell id="E6Fm2i0nhL4S2BmNDyQJ-391" value="" style="strokeColor=#DEEDFF" vertex="1" parent="E6Fm2i0nhL4S2BmNDyQJ-366">
          <mxGeometry x="480.0000000000001" y="2.098833927168149e-11" width="20.000000000000004" height="599.999999999958" as="geometry" />
        </mxCell>
        <mxCell id="E6Fm2i0nhL4S2BmNDyQJ-392" value="" style="strokeColor=#DEEDFF" vertex="1" parent="E6Fm2i0nhL4S2BmNDyQJ-366">
          <mxGeometry x="500.0000000000001" y="2.5186007126017788e-11" width="20.000000000000004" height="599.999999999958" as="geometry" />
        </mxCell>
        <mxCell id="E6Fm2i0nhL4S2BmNDyQJ-393" value="" style="strokeColor=#DEEDFF;fillColor=#D4E1FF" vertex="1" parent="E6Fm2i0nhL4S2BmNDyQJ-366">
          <mxGeometry x="520.0000000000001" y="2.5186007126017788e-11" width="20.000000000000004" height="599.999999999958" as="geometry" />
        </mxCell>
        <mxCell id="E6Fm2i0nhL4S2BmNDyQJ-394" value="" style="strokeColor=#DEEDFF;fillColor=#D4E1FF" vertex="1" parent="E6Fm2i0nhL4S2BmNDyQJ-366">
          <mxGeometry x="540.0000000000001" y="2.5186007126017788e-11" width="20.000000000000004" height="599.999999999958" as="geometry" />
        </mxCell>
        <mxCell id="E6Fm2i0nhL4S2BmNDyQJ-395" value="" style="strokeColor=#DEEDFF" vertex="1" parent="E6Fm2i0nhL4S2BmNDyQJ-366">
          <mxGeometry x="560.0000000000001" y="2.5186007126017788e-11" width="20.000000000000004" height="599.999999999958" as="geometry" />
        </mxCell>
        <mxCell id="E6Fm2i0nhL4S2BmNDyQJ-396" value="" style="strokeColor=#DEEDFF" vertex="1" parent="E6Fm2i0nhL4S2BmNDyQJ-366">
          <mxGeometry x="580.0000000000001" y="2.938367498035409e-11" width="20.000000000000004" height="599.999999999958" as="geometry" />
        </mxCell>
        <mxCell id="E6Fm2i0nhL4S2BmNDyQJ-397" value="" style="strokeColor=#DEEDFF" vertex="1" parent="E6Fm2i0nhL4S2BmNDyQJ-366">
          <mxGeometry x="600.0000000000001" y="2.938367498035409e-11" width="20.000000000000004" height="599.999999999958" as="geometry" />
        </mxCell>
        <mxCell id="E6Fm2i0nhL4S2BmNDyQJ-398" value="" style="strokeColor=#DEEDFF" vertex="1" parent="E6Fm2i0nhL4S2BmNDyQJ-366">
          <mxGeometry x="620.0000000000001" y="2.938367498035409e-11" width="20.000000000000004" height="599.999999999958" as="geometry" />
        </mxCell>
        <mxCell id="E6Fm2i0nhL4S2BmNDyQJ-399" value="" style="strokeColor=#DEEDFF" vertex="1" parent="E6Fm2i0nhL4S2BmNDyQJ-366">
          <mxGeometry x="639.9999999999997" y="2.938367498035409e-11" width="20.000000000000004" height="599.999999999958" as="geometry" />
        </mxCell>
        <mxCell id="E6Fm2i0nhL4S2BmNDyQJ-400" value="" style="strokeColor=#DEEDFF;fillColor=#D4E1FF" vertex="1" parent="E6Fm2i0nhL4S2BmNDyQJ-366">
          <mxGeometry x="659.9999999999997" y="3.3581342834690386e-11" width="20.000000000000004" height="599.999999999958" as="geometry" />
        </mxCell>
        <mxCell id="E6Fm2i0nhL4S2BmNDyQJ-401" value="" style="strokeColor=#DEEDFF;fillColor=#D4E1FF" vertex="1" parent="E6Fm2i0nhL4S2BmNDyQJ-366">
          <mxGeometry x="679.9999999999997" y="3.3581342834690386e-11" width="20.000000000000004" height="599.999999999958" as="geometry" />
        </mxCell>
        <mxCell id="E6Fm2i0nhL4S2BmNDyQJ-402" value="" style="strokeColor=#DEEDFF" vertex="1" parent="E6Fm2i0nhL4S2BmNDyQJ-366">
          <mxGeometry x="699.9999999999997" y="3.3581342834690386e-11" width="20.000000000000004" height="599.999999999958" as="geometry" />
        </mxCell>
        <mxCell id="E6Fm2i0nhL4S2BmNDyQJ-403" value="" style="strokeColor=#DEEDFF" vertex="1" parent="E6Fm2i0nhL4S2BmNDyQJ-366">
          <mxGeometry x="719.9999999999997" y="3.3581342834690386e-11" width="20.000000000000004" height="599.999999999958" as="geometry" />
        </mxCell>
        <mxCell id="E6Fm2i0nhL4S2BmNDyQJ-404" value="" style="strokeColor=#DEEDFF" vertex="1" parent="E6Fm2i0nhL4S2BmNDyQJ-366">
          <mxGeometry x="739.9999999999997" y="3.777901068902668e-11" width="20.000000000000004" height="599.999999999958" as="geometry" />
        </mxCell>
        <mxCell id="E6Fm2i0nhL4S2BmNDyQJ-405" value="" style="strokeColor=#DEEDFF" vertex="1" parent="E6Fm2i0nhL4S2BmNDyQJ-366">
          <mxGeometry x="759.9999999999997" y="3.777901068902668e-11" width="20.000000000000004" height="599.999999999958" as="geometry" />
        </mxCell>
        <mxCell id="E6Fm2i0nhL4S2BmNDyQJ-406" value="" style="strokeColor=#DEEDFF" vertex="1" parent="E6Fm2i0nhL4S2BmNDyQJ-366">
          <mxGeometry x="779.9999999999998" y="3.777901068902668e-11" width="20.000000000000004" height="599.999999999958" as="geometry" />
        </mxCell>
        <mxCell id="E6Fm2i0nhL4S2BmNDyQJ-407" value="" style="strokeColor=#DEEDFF;fillColor=#D4E1FF" vertex="1" parent="E6Fm2i0nhL4S2BmNDyQJ-366">
          <mxGeometry x="799.9999999999998" y="2.098833927168149e-11" width="20.000000000000004" height="599.999999999958" as="geometry" />
        </mxCell>
        <mxCell id="E6Fm2i0nhL4S2BmNDyQJ-408" value="" style="strokeColor=#DEEDFF;fillColor=#D4E1FF" vertex="1" parent="E6Fm2i0nhL4S2BmNDyQJ-366">
          <mxGeometry x="819.9999999999998" y="2.5186007126017788e-11" width="20.000000000000004" height="599.999999999958" as="geometry" />
        </mxCell>
        <mxCell id="E6Fm2i0nhL4S2BmNDyQJ-409" value="" style="strokeColor=#DEEDFF" vertex="1" parent="E6Fm2i0nhL4S2BmNDyQJ-366">
          <mxGeometry x="839.9999999999998" y="2.5186007126017788e-11" width="20.000000000000004" height="599.999999999958" as="geometry" />
        </mxCell>
        <mxCell id="E6Fm2i0nhL4S2BmNDyQJ-410" value="" style="strokeColor=#DEEDFF" vertex="1" parent="E6Fm2i0nhL4S2BmNDyQJ-366">
          <mxGeometry x="859.9999999999998" y="2.5186007126017788e-11" width="20.000000000000004" height="599.999999999958" as="geometry" />
        </mxCell>
        <mxCell id="E6Fm2i0nhL4S2BmNDyQJ-411" value="" style="strokeColor=#DEEDFF" vertex="1" parent="E6Fm2i0nhL4S2BmNDyQJ-366">
          <mxGeometry x="879.9999999999998" y="3.777901068902668e-11" width="20.000000000000004" height="599.999999999958" as="geometry" />
        </mxCell>
        <mxCell id="E6Fm2i0nhL4S2BmNDyQJ-412" value="" style="strokeColor=#DEEDFF" vertex="1" parent="E6Fm2i0nhL4S2BmNDyQJ-366">
          <mxGeometry x="899.9999999999998" y="4.197667854336298e-11" width="20.000000000000004" height="599.999999999958" as="geometry" />
        </mxCell>
        <mxCell id="E6Fm2i0nhL4S2BmNDyQJ-413" value="" style="strokeColor=#DEEDFF" vertex="1" parent="E6Fm2i0nhL4S2BmNDyQJ-366">
          <mxGeometry x="919.9999999999998" y="4.197667854336298e-11" width="20.000000000000004" height="599.999999999958" as="geometry" />
        </mxCell>
        <mxCell id="E6Fm2i0nhL4S2BmNDyQJ-414" value="" style="strokeColor=#DEEDFF;fillColor=#D4E1FF" vertex="1" parent="E6Fm2i0nhL4S2BmNDyQJ-366">
          <mxGeometry x="939.9999999999998" y="4.197667854336298e-11" width="20.000000000000004" height="599.999999999958" as="geometry" />
        </mxCell>
        <mxCell id="E6Fm2i0nhL4S2BmNDyQJ-415" value="" style="strokeColor=#DEEDFF;fillColor=#D4E1FF" vertex="1" parent="E6Fm2i0nhL4S2BmNDyQJ-366">
          <mxGeometry x="960" y="4.197667854336298e-11" width="20.000000000000004" height="599.999999999958" as="geometry" />
        </mxCell>
        <mxCell id="63" value="1" style="strokeColor=#DEEDFF;fillColor=#ADC3D9" parent="1" vertex="1">
          <mxGeometry x="5.5" y="380" width="40" height="20" as="geometry" />
        </mxCell>
        <mxCell id="64" value="Всього" style="align=left;strokeColor=#DEEDFF;fillColor=#ADC3D9" parent="1" vertex="1">
          <mxGeometry x="45.5" y="380" width="320" height="20" as="geometry" />
        </mxCell>
        <mxCell id="65" value="70д" style="strokeColor=#DEEDFF;fillColor=#ADC3D9" parent="1" vertex="1">
          <mxGeometry x="365.50000000000176" y="380" width="80.00000000000028" height="20" as="geometry" />
        </mxCell>
        <mxCell id="66" value="22.05.2006" style="strokeColor=#DEEDFF;fillColor=#ADC3D9" parent="1" vertex="1">
          <mxGeometry x="445.50000000000205" y="380" width="80.00000000000028" height="20" as="geometry" />
        </mxCell>
        <mxCell id="67" value="26.08.2006" style="strokeColor=#DEEDFF;fillColor=#ADC3D9" parent="1" vertex="1">
          <mxGeometry x="525.5000000000016" y="380.0000000000002" width="80.00000000000028" height="20" as="geometry" />
        </mxCell>
        <mxCell id="69" value="2" style="strokeColor=#DEEDFF;fillColor=#CCE5FF" parent="1" vertex="1">
          <mxGeometry x="5.500000000000256" y="399.9999999999999" width="40" height="20" as="geometry" />
        </mxCell>
        <mxCell id="70" value="Формування вимог" style="align=left;strokeColor=#DEEDFF;fillColor=#CCE5FF" parent="1" vertex="1">
          <mxGeometry x="45.500000000000256" y="399.9999999999999" width="319.9999999999998" height="20" as="geometry" />
        </mxCell>
        <mxCell id="71" value="10д" style="strokeColor=#DEEDFF;fillColor=#CCE5FF" parent="1" vertex="1">
          <mxGeometry x="365.500000000002" y="399.99999999999983" width="80.00000000000028" height="20" as="geometry" />
        </mxCell>
        <mxCell id="72" value="22.05.2006" style="strokeColor=#DEEDFF;fillColor=#CCE5FF" parent="1" vertex="1">
          <mxGeometry x="445.5000000000023" y="399.99999999999983" width="80.00000000000028" height="20" as="geometry" />
        </mxCell>
        <mxCell id="73" value="3.06.2006" style="strokeColor=#DEEDFF;fillColor=#CCE5FF" parent="1" vertex="1">
          <mxGeometry x="525.5000000000018" y="400.0000000000001" width="80.00000000000028" height="20" as="geometry" />
        </mxCell>
        <mxCell id="74" value="3" style="strokeColor=#DEEDFF" parent="1" vertex="1">
          <mxGeometry x="5.50000000000027" y="419.9999999999998" width="40" height="20" as="geometry" />
        </mxCell>
        <mxCell id="75" value="Збір вхідних даних" style="align=left;strokeColor=#DEEDFF" parent="1" vertex="1">
          <mxGeometry x="45.50000000000027" y="419.9999999999998" width="319.9999999999997" height="20.000000000000014" as="geometry" />
        </mxCell>
        <mxCell id="76" value="3д" style="strokeColor=#DEEDFF" parent="1" vertex="1">
          <mxGeometry x="365.500000000002" y="419.9999999999997" width="80.00000000000028" height="20" as="geometry" />
        </mxCell>
        <mxCell id="77" value="22.05.2006" style="strokeColor=#DEEDFF" parent="1" vertex="1">
          <mxGeometry x="445.5000000000023" y="419.9999999999997" width="80.00000000000028" height="20" as="geometry" />
        </mxCell>
        <mxCell id="78" value="25.05.2006" style="strokeColor=#DEEDFF" parent="1" vertex="1">
          <mxGeometry x="525.5000000000018" y="420" width="80.00000000000028" height="20" as="geometry" />
        </mxCell>
        <mxCell id="79" value="4" style="strokeColor=#DEEDFF" parent="1" vertex="1">
          <mxGeometry x="5.5" y="440.00000000000017" width="40" height="20" as="geometry" />
        </mxCell>
        <mxCell id="80" value="Аналіз бізнес-потреб та вимог користувачів" style="align=left;strokeColor=#DEEDFF" parent="1" vertex="1">
          <mxGeometry x="45.5" y="440.00000000000017" width="320" height="20" as="geometry" />
        </mxCell>
        <mxCell id="81" value="3д" style="strokeColor=#DEEDFF" parent="1" vertex="1">
          <mxGeometry x="365.5000000000017" y="440.0000000000001" width="80.00000000000028" height="20" as="geometry" />
        </mxCell>
        <mxCell id="82" value="25.05.2006" style="strokeColor=#DEEDFF" parent="1" vertex="1">
          <mxGeometry x="445.50000000000205" y="440.0000000000001" width="80.00000000000028" height="20" as="geometry" />
        </mxCell>
        <mxCell id="83" value="30.05.2006" style="strokeColor=#DEEDFF" parent="1" vertex="1">
          <mxGeometry x="525.5000000000015" y="440.0000000000004" width="80.00000000000028" height="20" as="geometry" />
        </mxCell>
        <mxCell id="84" value="5" style="strokeColor=#DEEDFF" parent="1" vertex="1">
          <mxGeometry x="5.499999999999915" y="460.00000000000017" width="40" height="20" as="geometry" />
        </mxCell>
        <mxCell id="85" value="Визначення функціональних та нефункціональних вимог" style="align=left;strokeColor=#DEEDFF" parent="1" vertex="1">
          <mxGeometry x="45.499999999999915" y="460.00000000000017" width="320.0000000000001" height="20" as="geometry" />
        </mxCell>
        <mxCell id="86" value="2д" style="strokeColor=#DEEDFF" parent="1" vertex="1">
          <mxGeometry x="365.50000000000165" y="460.0000000000001" width="80.00000000000028" height="20" as="geometry" />
        </mxCell>
        <mxCell id="87" value="30.05.2006" style="strokeColor=#DEEDFF" parent="1" vertex="1">
          <mxGeometry x="445.50000000000193" y="460.0000000000001" width="80.00000000000028" height="20" as="geometry" />
        </mxCell>
        <mxCell id="88" value="1.06.2006" style="strokeColor=#DEEDFF" parent="1" vertex="1">
          <mxGeometry x="525.5000000000015" y="460.0000000000004" width="80.00000000000028" height="20" as="geometry" />
        </mxCell>
        <mxCell id="89" value="6" style="strokeColor=#DEEDFF" parent="1" vertex="1">
          <mxGeometry x="5.4999999999999005" y="480.00000000000045" width="40" height="20" as="geometry" />
        </mxCell>
        <mxCell id="90" value="Створення ТЗ" style="align=left;strokeColor=#DEEDFF" parent="1" vertex="1">
          <mxGeometry x="45.4999999999999" y="480.00000000000045" width="320.0000000000001" height="20" as="geometry" />
        </mxCell>
        <mxCell id="91" value="2д" style="strokeColor=#DEEDFF" parent="1" vertex="1">
          <mxGeometry x="365.50000000000165" y="480.00000000000034" width="80.00000000000028" height="20" as="geometry" />
        </mxCell>
        <mxCell id="92" value="1.06.2006" style="strokeColor=#DEEDFF" parent="1" vertex="1">
          <mxGeometry x="445.50000000000193" y="480.00000000000034" width="80.00000000000028" height="20" as="geometry" />
        </mxCell>
        <mxCell id="93" value="3.06.2006" style="strokeColor=#DEEDFF" parent="1" vertex="1">
          <mxGeometry x="525.5000000000015" y="480.0000000000007" width="80.00000000000028" height="20" as="geometry" />
        </mxCell>
        <mxCell id="104" value="7" style="strokeColor=#DEEDFF;fillColor=#CCE5FF" parent="1" vertex="1">
          <mxGeometry x="5.5000000000003695" y="500.000000000001" width="40" height="20" as="geometry" />
        </mxCell>
        <mxCell id="105" value="Проектування" style="align=left;strokeColor=#DEEDFF;fillColor=#CCE5FF" parent="1" vertex="1">
          <mxGeometry x="45.50000000000037" y="500.000000000001" width="319.99999999999966" height="20.00000000000003" as="geometry" />
        </mxCell>
        <mxCell id="106" value="20д" style="strokeColor=#DEEDFF;fillColor=#CCE5FF" parent="1" vertex="1">
          <mxGeometry x="365.5000000000021" y="500.0000000000009" width="80.00000000000028" height="20" as="geometry" />
        </mxCell>
        <mxCell id="107" value="3.06.2006" style="strokeColor=#DEEDFF;fillColor=#CCE5FF" parent="1" vertex="1">
          <mxGeometry x="445.5000000000025" y="500.0000000000009" width="80.00000000000028" height="20" as="geometry" />
        </mxCell>
        <mxCell id="108" value="29.06.2006" style="strokeColor=#DEEDFF;fillColor=#CCE5FF" parent="1" vertex="1">
          <mxGeometry x="525.5000000000018" y="500.00000000000125" width="80.00000000000028" height="20" as="geometry" />
        </mxCell>
        <mxCell id="109" value="8" style="strokeColor=#DEEDFF" parent="1" vertex="1">
          <mxGeometry x="5.500000000000284" y="520.000000000001" width="40" height="20" as="geometry" />
        </mxCell>
        <mxCell id="110" value="Розробка архітектури системи" style="align=left;strokeColor=#DEEDFF" parent="1" vertex="1">
          <mxGeometry x="45.500000000000284" y="520.000000000001" width="319.9999999999997" height="20" as="geometry" />
        </mxCell>
        <mxCell id="111" value="6д" style="strokeColor=#DEEDFF" parent="1" vertex="1">
          <mxGeometry x="365.50000000000205" y="520.0000000000009" width="80.00000000000028" height="20" as="geometry" />
        </mxCell>
        <mxCell id="112" value="3.06.2006" style="strokeColor=#DEEDFF" parent="1" vertex="1">
          <mxGeometry x="445.5000000000023" y="520.0000000000009" width="80.00000000000028" height="20" as="geometry" />
        </mxCell>
        <mxCell id="113" value="11.06.2006" style="strokeColor=#DEEDFF" parent="1" vertex="1">
          <mxGeometry x="525.5000000000018" y="520.0000000000013" width="80.00000000000028" height="20" as="geometry" />
        </mxCell>
        <mxCell id="114" value="9" style="strokeColor=#DEEDFF" parent="1" vertex="1">
          <mxGeometry x="5.50000000000027" y="540.0000000000013" width="40" height="20" as="geometry" />
        </mxCell>
        <mxCell id="115" value="Проектування UI" style="align=left;strokeColor=#DEEDFF" parent="1" vertex="1">
          <mxGeometry x="45.50000000000027" y="540.0000000000013" width="319.9999999999997" height="20" as="geometry" />
        </mxCell>
        <mxCell id="116" value="7д" style="strokeColor=#DEEDFF" parent="1" vertex="1">
          <mxGeometry x="365.50000000000205" y="540.0000000000011" width="80.00000000000028" height="20" as="geometry" />
        </mxCell>
        <mxCell id="117" value="11.06.2006" style="strokeColor=#DEEDFF" parent="1" vertex="1">
          <mxGeometry x="445.5000000000023" y="540.0000000000011" width="80.00000000000028" height="20" as="geometry" />
        </mxCell>
        <mxCell id="118" value="20.06.2006" style="strokeColor=#DEEDFF" parent="1" vertex="1">
          <mxGeometry x="525.5000000000018" y="540.0000000000015" width="80.00000000000028" height="20" as="geometry" />
        </mxCell>
        <mxCell id="119" value="10" style="strokeColor=#DEEDFF" parent="1" vertex="1">
          <mxGeometry x="5.499999999999972" y="560.0000000000016" width="40" height="20" as="geometry" />
        </mxCell>
        <mxCell id="120" value="Вибір технологій та інструментів" style="align=left;strokeColor=#DEEDFF" parent="1" vertex="1">
          <mxGeometry x="45.49999999999997" y="560.0000000000016" width="320" height="20" as="geometry" />
        </mxCell>
        <mxCell id="121" value="5д" style="strokeColor=#DEEDFF" parent="1" vertex="1">
          <mxGeometry x="365.5000000000017" y="560.0000000000015" width="80.00000000000028" height="20" as="geometry" />
        </mxCell>
        <mxCell id="122" value="20.06.2006" style="strokeColor=#DEEDFF" parent="1" vertex="1">
          <mxGeometry x="445.50000000000205" y="560.0000000000015" width="80.00000000000028" height="20" as="geometry" />
        </mxCell>
        <mxCell id="123" value="27.06.2006" style="strokeColor=#DEEDFF" parent="1" vertex="1">
          <mxGeometry x="525.5000000000015" y="560.0000000000018" width="80.00000000000028" height="20" as="geometry" />
        </mxCell>
        <mxCell id="124" value="11" style="strokeColor=#DEEDFF" parent="1" vertex="1">
          <mxGeometry x="5.499999999999986" y="580.0000000000014" width="40" height="20" as="geometry" />
        </mxCell>
        <mxCell id="125" value="Розробка схем БД та вибір СУБД" style="align=left;strokeColor=#DEEDFF" parent="1" vertex="1">
          <mxGeometry x="45.499999999999986" y="580.0000000000014" width="320" height="20" as="geometry" />
        </mxCell>
        <mxCell id="126" value="2д" style="strokeColor=#DEEDFF" parent="1" vertex="1">
          <mxGeometry x="365.5000000000017" y="580.0000000000014" width="80.00000000000028" height="20" as="geometry" />
        </mxCell>
        <mxCell id="127" value="27.06.2006" style="strokeColor=#DEEDFF" parent="1" vertex="1">
          <mxGeometry x="445.50000000000205" y="580.0000000000014" width="80.00000000000028" height="20" as="geometry" />
        </mxCell>
        <mxCell id="128" value="29.06.2006" style="strokeColor=#DEEDFF" parent="1" vertex="1">
          <mxGeometry x="525.5000000000015" y="580.0000000000016" width="80.00000000000028" height="20" as="geometry" />
        </mxCell>
        <mxCell id="129" value="12" style="strokeColor=#DEEDFF;fillColor=#CCE5FF;" parent="1" vertex="1">
          <mxGeometry x="5.499999999999716" y="600.0000000000018" width="40" height="20" as="geometry" />
        </mxCell>
        <mxCell id="130" value="Реалізація" style="align=left;strokeColor=#DEEDFF;fillColor=#CCE5FF;" parent="1" vertex="1">
          <mxGeometry x="45.499999999999716" y="600.0000000000018" width="320.0000000000003" height="20" as="geometry" />
        </mxCell>
        <mxCell id="131" value="25д" style="strokeColor=#DEEDFF;fillColor=#CCE5FF;" parent="1" vertex="1">
          <mxGeometry x="365.5000000000014" y="600.0000000000018" width="80.00000000000028" height="20" as="geometry" />
        </mxCell>
        <mxCell id="132" value="3.07.2006" style="strokeColor=#DEEDFF;fillColor=#CCE5FF;" parent="1" vertex="1">
          <mxGeometry x="445.5000000000018" y="600.0000000000018" width="80.00000000000028" height="20" as="geometry" />
        </mxCell>
        <mxCell id="133" value="5.08.2006" style="strokeColor=#DEEDFF;fillColor=#CCE5FF;" parent="1" vertex="1">
          <mxGeometry x="525.5000000000011" y="600.000000000002" width="80.00000000000028" height="20" as="geometry" />
        </mxCell>
        <mxCell id="134" value="13" style="strokeColor=#DEEDFF;fillColor=#FFFFFF" parent="1" vertex="1">
          <mxGeometry x="5.4999999999996305" y="620.0000000000018" width="40" height="20" as="geometry" />
        </mxCell>
        <mxCell id="135" value="Написання програмного коду" style="align=left;strokeColor=#DEEDFF;fillColor=#FFFFFF" parent="1" vertex="1">
          <mxGeometry x="45.49999999999963" y="620.0000000000018" width="320.00000000000034" height="20" as="geometry" />
        </mxCell>
        <mxCell id="136" value="13д" style="strokeColor=#DEEDFF;fillColor=#FFFFFF" parent="1" vertex="1">
          <mxGeometry x="365.50000000000136" y="620.0000000000018" width="80.00000000000028" height="20" as="geometry" />
        </mxCell>
        <mxCell id="137" value="3.07.2006" style="strokeColor=#DEEDFF;fillColor=#FFFFFF" parent="1" vertex="1">
          <mxGeometry x="445.5000000000016" y="620.0000000000018" width="80.00000000000028" height="20" as="geometry" />
        </mxCell>
        <mxCell id="138" value="20.07.2006" style="strokeColor=#DEEDFF;fillColor=#FFFFFF" parent="1" vertex="1">
          <mxGeometry x="525.5000000000011" y="620.000000000002" width="80.00000000000028" height="20" as="geometry" />
        </mxCell>
        <mxCell id="139" value="14" style="strokeColor=#DEEDFF;fillColor=#FFFFFF;" parent="1" vertex="1">
          <mxGeometry x="5.499999999999616" y="640.000000000002" width="40" height="20" as="geometry" />
        </mxCell>
        <mxCell id="140" value="Розробка модулів та компонентів" style="align=left;strokeColor=#DEEDFF;fillColor=#FFFFFF;" parent="1" vertex="1">
          <mxGeometry x="45.499999999999616" y="640.000000000002" width="320.0000000000004" height="20" as="geometry" />
        </mxCell>
        <mxCell id="141" value="7д" style="strokeColor=#DEEDFF;fillColor=#FFFFFF;" parent="1" vertex="1">
          <mxGeometry x="365.50000000000136" y="640.000000000002" width="80.00000000000028" height="20" as="geometry" />
        </mxCell>
        <mxCell id="142" value="20.07.2006" style="strokeColor=#DEEDFF;fillColor=#FFFFFF;" parent="1" vertex="1">
          <mxGeometry x="445.5000000000016" y="640.000000000002" width="80.00000000000028" height="20" as="geometry" />
        </mxCell>
        <mxCell id="143" value="29.07.2006" style="strokeColor=#DEEDFF;fillColor=#FFFFFF;" parent="1" vertex="1">
          <mxGeometry x="525.5000000000011" y="640.0000000000023" width="80.00000000000028" height="20" as="geometry" />
        </mxCell>
        <mxCell id="144" value="15" style="strokeColor=#DEEDFF" parent="1" vertex="1">
          <mxGeometry x="5.500000000000995" y="660.0000000000023" width="40" height="20" as="geometry" />
        </mxCell>
        <mxCell id="145" value="Тестування окремих частин програми" style="align=left;strokeColor=#DEEDFF" parent="1" vertex="1">
          <mxGeometry x="45.500000000000995" y="660.0000000000023" width="319.999999999999" height="20" as="geometry" />
        </mxCell>
        <mxCell id="146" value="5д" style="strokeColor=#DEEDFF" parent="1" vertex="1">
          <mxGeometry x="365.50000000000273" y="660.0000000000023" width="80.00000000000028" height="20" as="geometry" />
        </mxCell>
        <mxCell id="147" value="31.07.2006" style="strokeColor=#DEEDFF" parent="1" vertex="1">
          <mxGeometry x="445.50000000000296" y="660.0000000000023" width="80.00000000000028" height="20" as="geometry" />
        </mxCell>
        <mxCell id="148" value="5.08.2006" style="strokeColor=#DEEDFF" parent="1" vertex="1">
          <mxGeometry x="525.5000000000025" y="660.0000000000025" width="80.00000000000028" height="20" as="geometry" />
        </mxCell>
        <mxCell id="149" value="16" style="strokeColor=#DEEDFF;fillColor=#CCE5FF;" parent="1" vertex="1">
          <mxGeometry x="5.500000000001023" y="680.0000000000022" width="40" height="20" as="geometry" />
        </mxCell>
        <mxCell id="150" value="Тестування" style="align=left;strokeColor=#DEEDFF;fillColor=#CCE5FF;" parent="1" vertex="1">
          <mxGeometry x="45.50000000000102" y="680.0000000000022" width="319.999999999999" height="20" as="geometry" />
        </mxCell>
        <mxCell id="151" value="4д" style="strokeColor=#DEEDFF;fillColor=#CCE5FF;" parent="1" vertex="1">
          <mxGeometry x="365.50000000000273" y="680.000000000002" width="80.00000000000028" height="20" as="geometry" />
        </mxCell>
        <mxCell id="152" value="7.08.2006" style="strokeColor=#DEEDFF;fillColor=#CCE5FF;" parent="1" vertex="1">
          <mxGeometry x="445.50000000000296" y="680.000000000002" width="80.00000000000028" height="20" as="geometry" />
        </mxCell>
        <mxCell id="153" value="11.08.2006" style="strokeColor=#DEEDFF;fillColor=#CCE5FF;" parent="1" vertex="1">
          <mxGeometry x="525.5000000000025" y="680.0000000000024" width="80.00000000000028" height="20" as="geometry" />
        </mxCell>
        <mxCell id="154" value="17" style="strokeColor=#DEEDFF" parent="1" vertex="1">
          <mxGeometry x="5.500000000000739" y="700.0000000000025" width="40" height="20" as="geometry" />
        </mxCell>
        <mxCell id="155" value="Проведення інтеграційних тестів" style="align=left;strokeColor=#DEEDFF" parent="1" vertex="1">
          <mxGeometry x="45.50000000000074" y="700.0000000000025" width="319.99999999999926" height="20" as="geometry" />
        </mxCell>
        <mxCell id="156" value="1д" style="strokeColor=#DEEDFF" parent="1" vertex="1">
          <mxGeometry x="365.50000000000244" y="700.0000000000025" width="80.00000000000028" height="20" as="geometry" />
        </mxCell>
        <mxCell id="157" value="7.08.2006" style="strokeColor=#DEEDFF" parent="1" vertex="1">
          <mxGeometry x="445.50000000000273" y="700.0000000000025" width="80.00000000000028" height="20" as="geometry" />
        </mxCell>
        <mxCell id="158" value="8.08.2006" style="strokeColor=#DEEDFF" parent="1" vertex="1">
          <mxGeometry x="525.5000000000023" y="700.0000000000027" width="80.00000000000028" height="20" as="geometry" />
        </mxCell>
        <mxCell id="159" value="18" style="strokeColor=#DEEDFF" parent="1" vertex="1">
          <mxGeometry x="5.500000000000654" y="720.0000000000025" width="40" height="20" as="geometry" />
        </mxCell>
        <mxCell id="160" value="Системне тестування всього продукту" style="align=left;strokeColor=#DEEDFF" parent="1" vertex="1">
          <mxGeometry x="45.500000000000654" y="720.0000000000025" width="319.9999999999993" height="20" as="geometry" />
        </mxCell>
        <mxCell id="161" value="2д" style="strokeColor=#DEEDFF" parent="1" vertex="1">
          <mxGeometry x="365.5000000000024" y="720.0000000000025" width="80.00000000000028" height="20" as="geometry" />
        </mxCell>
        <mxCell id="162" value="8.08.2006" style="strokeColor=#DEEDFF" parent="1" vertex="1">
          <mxGeometry x="445.50000000000273" y="720.0000000000025" width="80.00000000000028" height="20" as="geometry" />
        </mxCell>
        <mxCell id="163" value="10.08.2006" style="strokeColor=#DEEDFF" parent="1" vertex="1">
          <mxGeometry x="525.5000000000023" y="720.0000000000027" width="80.00000000000028" height="20" as="geometry" />
        </mxCell>
        <mxCell id="164" value="19" style="strokeColor=#DEEDFF" parent="1" vertex="1">
          <mxGeometry x="5.500000000000654" y="740.0000000000028" width="40" height="20" as="geometry" />
        </mxCell>
        <mxCell id="165" value="Виявлення та виправлення помилок" style="align=left;strokeColor=#DEEDFF" parent="1" vertex="1">
          <mxGeometry x="45.500000000000654" y="740.0000000000028" width="319.9999999999993" height="20" as="geometry" />
        </mxCell>
        <mxCell id="166" value="2д" style="strokeColor=#DEEDFF" parent="1" vertex="1">
          <mxGeometry x="365.5000000000024" y="740.0000000000027" width="80.00000000000028" height="20" as="geometry" />
        </mxCell>
        <mxCell id="167" value="8.08.2006" style="strokeColor=#DEEDFF" parent="1" vertex="1">
          <mxGeometry x="445.50000000000273" y="740.0000000000027" width="80.00000000000028" height="20" as="geometry" />
        </mxCell>
        <mxCell id="168" value="10.08.2006" style="strokeColor=#DEEDFF" parent="1" vertex="1">
          <mxGeometry x="525.5000000000023" y="740.0000000000031" width="80.00000000000028" height="20" as="geometry" />
        </mxCell>
        <mxCell id="169" value="20" style="strokeColor=#DEEDFF" parent="1" vertex="1">
          <mxGeometry x="5.500000000001364" y="760.0000000000031" width="40" height="20" as="geometry" />
        </mxCell>
        <mxCell id="170" value="Перевірка відповідності вимогам" style="align=left;strokeColor=#DEEDFF" parent="1" vertex="1">
          <mxGeometry x="45.500000000001364" y="760.0000000000031" width="319.99999999999864" height="20" as="geometry" />
        </mxCell>
        <mxCell id="171" value="1д" style="strokeColor=#DEEDFF" parent="1" vertex="1">
          <mxGeometry x="365.5000000000031" y="760.000000000003" width="80.00000000000028" height="20" as="geometry" />
        </mxCell>
        <mxCell id="172" value="10.08.2006" style="strokeColor=#DEEDFF" parent="1" vertex="1">
          <mxGeometry x="445.5000000000034" y="760.000000000003" width="80.00000000000028" height="20" as="geometry" />
        </mxCell>
        <mxCell id="173" value="11.08.2006" style="strokeColor=#DEEDFF" parent="1" vertex="1">
          <mxGeometry x="525.500000000003" y="760.0000000000033" width="80.00000000000028" height="20" as="geometry" />
        </mxCell>
        <mxCell id="174" value="21" style="strokeColor=#DEEDFF;fillColor=#CCE5FF;" parent="1" vertex="1">
          <mxGeometry x="5.500000000001393" y="780.000000000003" width="40" height="20" as="geometry" />
        </mxCell>
        <mxCell id="175" value="Впровадження" style="align=left;strokeColor=#DEEDFF;fillColor=#CCE5FF;" parent="1" vertex="1">
          <mxGeometry x="45.50000000000139" y="780.000000000003" width="319.99999999999864" height="20" as="geometry" />
        </mxCell>
        <mxCell id="176" value="3д" style="strokeColor=#DEEDFF;fillColor=#CCE5FF;" parent="1" vertex="1">
          <mxGeometry x="365.5000000000031" y="780.000000000003" width="80.00000000000028" height="20" as="geometry" />
        </mxCell>
        <mxCell id="177" value="11.08.2006" style="strokeColor=#DEEDFF;fillColor=#CCE5FF;" parent="1" vertex="1">
          <mxGeometry x="445.5000000000034" y="780.000000000003" width="80.00000000000028" height="20" as="geometry" />
        </mxCell>
        <mxCell id="178" value="16.08.2006" style="strokeColor=#DEEDFF;fillColor=#CCE5FF;" parent="1" vertex="1">
          <mxGeometry x="525.500000000003" y="780.0000000000032" width="80.00000000000028" height="20" as="geometry" />
        </mxCell>
        <mxCell id="179" value="22" style="strokeColor=#DEEDFF" parent="1" vertex="1">
          <mxGeometry x="5.5000000000011084" y="800.0000000000034" width="40" height="20" as="geometry" />
        </mxCell>
        <mxCell id="180" value="Підготовка до впровадження" style="align=left;strokeColor=#DEEDFF" parent="1" vertex="1">
          <mxGeometry x="45.50000000000111" y="800.0000000000034" width="319.99999999999886" height="20" as="geometry" />
        </mxCell>
        <mxCell id="181" value="1д" style="strokeColor=#DEEDFF" parent="1" vertex="1">
          <mxGeometry x="365.50000000000284" y="800.0000000000033" width="80.00000000000028" height="20" as="geometry" />
        </mxCell>
        <mxCell id="182" value="11.08.2006" style="strokeColor=#DEEDFF" parent="1" vertex="1">
          <mxGeometry x="445.5000000000032" y="800.0000000000033" width="80.00000000000028" height="20" as="geometry" />
        </mxCell>
        <mxCell id="183" value="12.08.2006" style="strokeColor=#DEEDFF" parent="1" vertex="1">
          <mxGeometry x="525.5000000000026" y="800.0000000000036" width="80.00000000000028" height="20" as="geometry" />
        </mxCell>
        <mxCell id="184" value="23" style="strokeColor=#DEEDFF" parent="1" vertex="1">
          <mxGeometry x="5.500000000001023" y="820.0000000000034" width="40" height="20" as="geometry" />
        </mxCell>
        <mxCell id="185" value="Запуск продукту в експлуатацію" style="align=left;strokeColor=#DEEDFF" parent="1" vertex="1">
          <mxGeometry x="45.50000000000102" y="820.0000000000034" width="319.999999999999" height="20" as="geometry" />
        </mxCell>
        <mxCell id="186" value="1д" style="strokeColor=#DEEDFF" parent="1" vertex="1">
          <mxGeometry x="365.5000000000028" y="820.0000000000033" width="80.00000000000028" height="20" as="geometry" />
        </mxCell>
        <mxCell id="187" value="14.08.2006" style="strokeColor=#DEEDFF" parent="1" vertex="1">
          <mxGeometry x="445.50000000000307" y="820.0000000000033" width="80.00000000000028" height="20" as="geometry" />
        </mxCell>
        <mxCell id="188" value="15.08.2006" style="strokeColor=#DEEDFF" parent="1" vertex="1">
          <mxGeometry x="525.5000000000026" y="820.0000000000036" width="80.00000000000028" height="20" as="geometry" />
        </mxCell>
        <mxCell id="189" value="24" style="strokeColor=#DEEDFF" parent="1" vertex="1">
          <mxGeometry x="5.500000000001023" y="840.0000000000036" width="40" height="20" as="geometry" />
        </mxCell>
        <mxCell id="190" value="Навчання користувачів" style="align=left;strokeColor=#DEEDFF" parent="1" vertex="1">
          <mxGeometry x="45.500000000000995" y="840.0000000000036" width="319.999999999999" height="20" as="geometry" />
        </mxCell>
        <mxCell id="191" value="1д" style="strokeColor=#DEEDFF" parent="1" vertex="1">
          <mxGeometry x="365.5000000000028" y="840.0000000000035" width="80.00000000000028" height="20" as="geometry" />
        </mxCell>
        <mxCell id="192" value="15.08.2006" style="strokeColor=#DEEDFF" parent="1" vertex="1">
          <mxGeometry x="445.50000000000307" y="840.0000000000035" width="80.00000000000028" height="20" as="geometry" />
        </mxCell>
        <mxCell id="193" value="16.08.2006" style="strokeColor=#DEEDFF" parent="1" vertex="1">
          <mxGeometry x="525.5000000000026" y="840.0000000000039" width="80.00000000000028" height="20" as="geometry" />
        </mxCell>
        <mxCell id="2" value="Назва задачі" style="fillColor=#23445D;strokeColor=#FFFFFF;strokeWidth=2;fontColor=#FFFFFF;fontStyle=1" parent="1" vertex="1">
          <mxGeometry x="45.5" y="340" width="320" height="40" as="geometry" />
        </mxCell>
        <mxCell id="3" value="" style="fillColor=#23445D;strokeColor=#FFFFFF;strokeWidth=2;fontColor=#FFFFFF;fontStyle=1" parent="1" vertex="1">
          <mxGeometry x="5.5" y="340" width="40" height="40" as="geometry" />
        </mxCell>
        <mxCell id="12" value="Тривалість" style="fillColor=#23445D;strokeColor=#FFFFFF;strokeWidth=2;fontColor=#FFFFFF;fontStyle=1" parent="1" vertex="1">
          <mxGeometry x="365.50000000000176" y="340.00000000000006" width="80.00000000000006" height="40.00000000000001" as="geometry" />
        </mxCell>
        <mxCell id="13" value="Початок" style="fillColor=#23445D;strokeColor=#FFFFFF;strokeWidth=2;fontColor=#FFFFFF;fontStyle=1" parent="1" vertex="1">
          <mxGeometry x="445.5000000000018" y="340.00000000000006" width="80.00000000000006" height="40.00000000000001" as="geometry" />
        </mxCell>
        <mxCell id="14" value="Кінець" style="fillColor=#23445D;strokeColor=#FFFFFF;strokeWidth=2;fontColor=#FFFFFF;fontStyle=1" parent="1" vertex="1">
          <mxGeometry x="525.5000000000019" y="340.0000000000001" width="80.00000000000006" height="40.00000000000001" as="geometry" />
        </mxCell>
        <mxCell id="E6Fm2i0nhL4S2BmNDyQJ-285" value="26" style="strokeColor=#DEEDFF;fillColor=#CCE5FF;" vertex="1" parent="1">
          <mxGeometry x="5.500000000001023" y="860.0000000000036" width="40" height="20" as="geometry" />
        </mxCell>
        <mxCell id="E6Fm2i0nhL4S2BmNDyQJ-286" value="Експлуатація та супровід" style="align=left;strokeColor=#DEEDFF;fillColor=#CCE5FF;" vertex="1" parent="1">
          <mxGeometry x="45.500000000000995" y="860.0000000000036" width="319.999999999999" height="20" as="geometry" />
        </mxCell>
        <mxCell id="E6Fm2i0nhL4S2BmNDyQJ-287" value="8д" style="strokeColor=#DEEDFF;fillColor=#CCE5FF;" vertex="1" parent="1">
          <mxGeometry x="365.5000000000028" y="860.0000000000035" width="80.00000000000028" height="20" as="geometry" />
        </mxCell>
        <mxCell id="E6Fm2i0nhL4S2BmNDyQJ-288" value="16.08.2006" style="strokeColor=#DEEDFF;fillColor=#CCE5FF;" vertex="1" parent="1">
          <mxGeometry x="445.50000000000307" y="860.0000000000035" width="80.00000000000028" height="20" as="geometry" />
        </mxCell>
        <mxCell id="E6Fm2i0nhL4S2BmNDyQJ-289" value="26.08.2006" style="strokeColor=#DEEDFF;fillColor=#CCE5FF;" vertex="1" parent="1">
          <mxGeometry x="525.5000000000026" y="860.0000000000039" width="80.00000000000028" height="20" as="geometry" />
        </mxCell>
        <mxCell id="E6Fm2i0nhL4S2BmNDyQJ-290" value="27" style="strokeColor=#DEEDFF" vertex="1" parent="1">
          <mxGeometry x="5.500000000001023" y="880.0000000000036" width="40" height="20" as="geometry" />
        </mxCell>
        <mxCell id="E6Fm2i0nhL4S2BmNDyQJ-291" value="Підтримка роботи продукту" style="align=left;strokeColor=#DEEDFF" vertex="1" parent="1">
          <mxGeometry x="45.500000000000995" y="880.0000000000036" width="319.999999999999" height="20" as="geometry" />
        </mxCell>
        <mxCell id="E6Fm2i0nhL4S2BmNDyQJ-292" value="4д" style="strokeColor=#DEEDFF" vertex="1" parent="1">
          <mxGeometry x="365.5000000000028" y="880.0000000000035" width="80.00000000000028" height="20" as="geometry" />
        </mxCell>
        <mxCell id="E6Fm2i0nhL4S2BmNDyQJ-293" value="16.08.2006" style="strokeColor=#DEEDFF" vertex="1" parent="1">
          <mxGeometry x="445.50000000000307" y="880.0000000000035" width="80.00000000000028" height="20" as="geometry" />
        </mxCell>
        <mxCell id="E6Fm2i0nhL4S2BmNDyQJ-294" value="22.08.2006" style="strokeColor=#DEEDFF" vertex="1" parent="1">
          <mxGeometry x="525.5000000000026" y="880.0000000000039" width="80.00000000000028" height="20" as="geometry" />
        </mxCell>
        <mxCell id="E6Fm2i0nhL4S2BmNDyQJ-295" value="28" style="strokeColor=#DEEDFF" vertex="1" parent="1">
          <mxGeometry x="5.500000000001023" y="900.0000000000036" width="40" height="20" as="geometry" />
        </mxCell>
        <mxCell id="E6Fm2i0nhL4S2BmNDyQJ-296" value="Вирішення поточних питань" style="align=left;strokeColor=#DEEDFF" vertex="1" parent="1">
          <mxGeometry x="45.500000000000995" y="900.0000000000036" width="319.999999999999" height="20" as="geometry" />
        </mxCell>
        <mxCell id="E6Fm2i0nhL4S2BmNDyQJ-297" value="3д" style="strokeColor=#DEEDFF" vertex="1" parent="1">
          <mxGeometry x="365.5000000000028" y="900.0000000000035" width="80.00000000000028" height="20" as="geometry" />
        </mxCell>
        <mxCell id="E6Fm2i0nhL4S2BmNDyQJ-298" value="22.08.2006" style="strokeColor=#DEEDFF" vertex="1" parent="1">
          <mxGeometry x="445.50000000000307" y="900.0000000000035" width="80.00000000000028" height="20" as="geometry" />
        </mxCell>
        <mxCell id="E6Fm2i0nhL4S2BmNDyQJ-299" value="25.08.2006" style="strokeColor=#DEEDFF" vertex="1" parent="1">
          <mxGeometry x="525.5000000000026" y="900.0000000000039" width="80.00000000000028" height="20" as="geometry" />
        </mxCell>
        <mxCell id="E6Fm2i0nhL4S2BmNDyQJ-300" value="29" style="strokeColor=#DEEDFF" vertex="1" parent="1">
          <mxGeometry x="5.500000000001023" y="920.0000000000036" width="40" height="20" as="geometry" />
        </mxCell>
        <mxCell id="E6Fm2i0nhL4S2BmNDyQJ-301" value="Виправлення помилок та впровадження оновлень" style="align=left;strokeColor=#DEEDFF" vertex="1" parent="1">
          <mxGeometry x="45.500000000000995" y="920.0000000000036" width="319.999999999999" height="20" as="geometry" />
        </mxCell>
        <mxCell id="E6Fm2i0nhL4S2BmNDyQJ-302" value="1д" style="strokeColor=#DEEDFF" vertex="1" parent="1">
          <mxGeometry x="365.5000000000028" y="920.0000000000035" width="80.00000000000028" height="20" as="geometry" />
        </mxCell>
        <mxCell id="E6Fm2i0nhL4S2BmNDyQJ-303" value="25.08.2006" style="strokeColor=#DEEDFF" vertex="1" parent="1">
          <mxGeometry x="445.50000000000307" y="920.0000000000035" width="80.00000000000028" height="20" as="geometry" />
        </mxCell>
        <mxCell id="E6Fm2i0nhL4S2BmNDyQJ-304" value="26.08.2006" style="strokeColor=#DEEDFF" vertex="1" parent="1">
          <mxGeometry x="525.5000000000026" y="920.0000000000039" width="80.00000000000028" height="20" as="geometry" />
        </mxCell>
        <mxCell id="E6Fm2i0nhL4S2BmNDyQJ-697" value="8" style="strokeColor=#DEEDFF;fillColor=#ADC3D9" vertex="1" parent="1">
          <mxGeometry x="605.5000000000016" y="380.0000000000002" width="80.00000000000028" height="20" as="geometry" />
        </mxCell>
        <mxCell id="E6Fm2i0nhL4S2BmNDyQJ-698" value="6" style="strokeColor=#DEEDFF;fillColor=#CCE5FF" vertex="1" parent="1">
          <mxGeometry x="605.5000000000018" y="400.0000000000001" width="80.00000000000028" height="20" as="geometry" />
        </mxCell>
        <mxCell id="E6Fm2i0nhL4S2BmNDyQJ-699" value="2" style="strokeColor=#DEEDFF" vertex="1" parent="1">
          <mxGeometry x="605.5000000000018" y="420" width="80.00000000000028" height="20" as="geometry" />
        </mxCell>
        <mxCell id="E6Fm2i0nhL4S2BmNDyQJ-700" value="2" style="strokeColor=#DEEDFF" vertex="1" parent="1">
          <mxGeometry x="605.5000000000015" y="440.0000000000004" width="80.00000000000028" height="20" as="geometry" />
        </mxCell>
        <mxCell id="E6Fm2i0nhL4S2BmNDyQJ-701" value="1" style="strokeColor=#DEEDFF" vertex="1" parent="1">
          <mxGeometry x="605.5000000000015" y="460.0000000000004" width="80.00000000000028" height="20" as="geometry" />
        </mxCell>
        <mxCell id="E6Fm2i0nhL4S2BmNDyQJ-702" value="1" style="strokeColor=#DEEDFF" vertex="1" parent="1">
          <mxGeometry x="605.5000000000015" y="480.0000000000007" width="80.00000000000028" height="20" as="geometry" />
        </mxCell>
        <mxCell id="E6Fm2i0nhL4S2BmNDyQJ-703" value="8" style="strokeColor=#DEEDFF;fillColor=#CCE5FF" vertex="1" parent="1">
          <mxGeometry x="605.5000000000018" y="500.00000000000125" width="80.00000000000028" height="20" as="geometry" />
        </mxCell>
        <mxCell id="E6Fm2i0nhL4S2BmNDyQJ-704" value="3" style="strokeColor=#DEEDFF" vertex="1" parent="1">
          <mxGeometry x="605.5000000000018" y="520.0000000000013" width="80.00000000000028" height="20" as="geometry" />
        </mxCell>
        <mxCell id="E6Fm2i0nhL4S2BmNDyQJ-705" value="4" style="strokeColor=#DEEDFF" vertex="1" parent="1">
          <mxGeometry x="605.5000000000018" y="540.0000000000015" width="80.00000000000028" height="20" as="geometry" />
        </mxCell>
        <mxCell id="E6Fm2i0nhL4S2BmNDyQJ-706" value="2" style="strokeColor=#DEEDFF" vertex="1" parent="1">
          <mxGeometry x="605.5000000000015" y="560.0000000000018" width="80.00000000000028" height="20" as="geometry" />
        </mxCell>
        <mxCell id="E6Fm2i0nhL4S2BmNDyQJ-707" value="1" style="strokeColor=#DEEDFF" vertex="1" parent="1">
          <mxGeometry x="605.5000000000015" y="580.0000000000016" width="80.00000000000028" height="20" as="geometry" />
        </mxCell>
        <mxCell id="E6Fm2i0nhL4S2BmNDyQJ-708" value="8" style="strokeColor=#DEEDFF;fillColor=#CCE5FF;" vertex="1" parent="1">
          <mxGeometry x="605.5000000000011" y="600.000000000002" width="80.00000000000028" height="20" as="geometry" />
        </mxCell>
        <mxCell id="E6Fm2i0nhL4S2BmNDyQJ-709" value="6" style="strokeColor=#DEEDFF;fillColor=#FFFFFF" vertex="1" parent="1">
          <mxGeometry x="605.5000000000011" y="620.000000000002" width="80.00000000000028" height="20" as="geometry" />
        </mxCell>
        <mxCell id="E6Fm2i0nhL4S2BmNDyQJ-710" value="4" style="strokeColor=#DEEDFF;fillColor=#FFFFFF;" vertex="1" parent="1">
          <mxGeometry x="605.5000000000011" y="640.0000000000023" width="80.00000000000028" height="20" as="geometry" />
        </mxCell>
        <mxCell id="E6Fm2i0nhL4S2BmNDyQJ-711" value="2" style="strokeColor=#DEEDFF" vertex="1" parent="1">
          <mxGeometry x="605.5000000000025" y="660.0000000000025" width="80.00000000000028" height="20" as="geometry" />
        </mxCell>
        <mxCell id="E6Fm2i0nhL4S2BmNDyQJ-712" value="5" style="strokeColor=#DEEDFF;fillColor=#CCE5FF;" vertex="1" parent="1">
          <mxGeometry x="605.5000000000025" y="680.0000000000024" width="80.00000000000028" height="20" as="geometry" />
        </mxCell>
        <mxCell id="E6Fm2i0nhL4S2BmNDyQJ-713" value="1" style="strokeColor=#DEEDFF" vertex="1" parent="1">
          <mxGeometry x="605.5000000000023" y="700.0000000000027" width="80.00000000000028" height="20" as="geometry" />
        </mxCell>
        <mxCell id="E6Fm2i0nhL4S2BmNDyQJ-714" value="1" style="strokeColor=#DEEDFF" vertex="1" parent="1">
          <mxGeometry x="605.5000000000023" y="720.0000000000027" width="80.00000000000028" height="20" as="geometry" />
        </mxCell>
        <mxCell id="E6Fm2i0nhL4S2BmNDyQJ-715" value="2" style="strokeColor=#DEEDFF" vertex="1" parent="1">
          <mxGeometry x="605.5000000000023" y="740.0000000000031" width="80.00000000000028" height="20" as="geometry" />
        </mxCell>
        <mxCell id="E6Fm2i0nhL4S2BmNDyQJ-716" value="1" style="strokeColor=#DEEDFF" vertex="1" parent="1">
          <mxGeometry x="605.500000000003" y="760.0000000000033" width="80.00000000000028" height="20" as="geometry" />
        </mxCell>
        <mxCell id="E6Fm2i0nhL4S2BmNDyQJ-717" value="4" style="strokeColor=#DEEDFF;fillColor=#CCE5FF;" vertex="1" parent="1">
          <mxGeometry x="605.500000000003" y="780.0000000000032" width="80.00000000000028" height="20" as="geometry" />
        </mxCell>
        <mxCell id="E6Fm2i0nhL4S2BmNDyQJ-718" value="1" style="strokeColor=#DEEDFF" vertex="1" parent="1">
          <mxGeometry x="605.5000000000026" y="800.0000000000036" width="80.00000000000028" height="20" as="geometry" />
        </mxCell>
        <mxCell id="E6Fm2i0nhL4S2BmNDyQJ-719" value="2" style="strokeColor=#DEEDFF" vertex="1" parent="1">
          <mxGeometry x="605.5000000000026" y="820.0000000000036" width="80.00000000000028" height="20" as="geometry" />
        </mxCell>
        <mxCell id="E6Fm2i0nhL4S2BmNDyQJ-720" value="1" style="strokeColor=#DEEDFF" vertex="1" parent="1">
          <mxGeometry x="605.5000000000026" y="840.0000000000039" width="80.00000000000028" height="20" as="geometry" />
        </mxCell>
        <mxCell id="E6Fm2i0nhL4S2BmNDyQJ-721" value="Виконавці" style="fillColor=#23445D;strokeColor=#FFFFFF;strokeWidth=2;fontColor=#FFFFFF;fontStyle=1" vertex="1" parent="1">
          <mxGeometry x="605.5000000000019" y="340.0000000000001" width="80.00000000000006" height="40.00000000000001" as="geometry" />
        </mxCell>
        <mxCell id="E6Fm2i0nhL4S2BmNDyQJ-723" value="5" style="strokeColor=#DEEDFF;fillColor=#CCE5FF;" vertex="1" parent="1">
          <mxGeometry x="605.5000000000026" y="860.0000000000039" width="80.00000000000028" height="20" as="geometry" />
        </mxCell>
        <mxCell id="E6Fm2i0nhL4S2BmNDyQJ-724" value="2" style="strokeColor=#DEEDFF" vertex="1" parent="1">
          <mxGeometry x="605.5000000000026" y="880.0000000000039" width="80.00000000000028" height="20" as="geometry" />
        </mxCell>
        <mxCell id="E6Fm2i0nhL4S2BmNDyQJ-725" value="1" style="strokeColor=#DEEDFF" vertex="1" parent="1">
          <mxGeometry x="605.5000000000026" y="900.0000000000039" width="80.00000000000028" height="20" as="geometry" />
        </mxCell>
        <mxCell id="E6Fm2i0nhL4S2BmNDyQJ-726" value="2" style="strokeColor=#DEEDFF" vertex="1" parent="1">
          <mxGeometry x="605.5000000000026" y="920.0000000000039" width="80.00000000000028" height="20" as="geometry" />
        </mxCell>
        <mxCell id="9" value="F" style="fillColor=#23445D;strokeColor=#FFFFFF;strokeWidth=2;fontColor=#FFFFFF;fontStyle=1" parent="1" vertex="1">
          <mxGeometry x="766.5000000000016" y="360.0000000000001" width="20" height="20" as="geometry" />
        </mxCell>
        <mxCell id="5" value="M" style="fillColor=#23445D;strokeColor=#FFFFFF;strokeWidth=2;fontColor=#FFFFFF;fontStyle=1" parent="1" vertex="1">
          <mxGeometry x="686.5000000000018" y="360.0000000000001" width="20" height="20" as="geometry" />
        </mxCell>
        <mxCell id="6" value="T" style="fillColor=#23445D;strokeColor=#FFFFFF;strokeWidth=2;fontColor=#FFFFFF;fontStyle=1" parent="1" vertex="1">
          <mxGeometry x="706.5000000000018" y="360.0000000000001" width="20" height="20" as="geometry" />
        </mxCell>
        <mxCell id="7" value="W" style="fillColor=#23445D;strokeColor=#FFFFFF;strokeWidth=2;fontColor=#FFFFFF;fontStyle=1" parent="1" vertex="1">
          <mxGeometry x="726.5000000000018" y="360.0000000000001" width="20" height="20" as="geometry" />
        </mxCell>
        <mxCell id="8" value="T" style="fillColor=#23445D;strokeColor=#FFFFFF;strokeWidth=2;fontColor=#FFFFFF;fontStyle=1" parent="1" vertex="1">
          <mxGeometry x="746.5000000000018" y="360.0000000000001" width="20" height="20" as="geometry" />
        </mxCell>
        <mxCell id="10" value="S" style="fillColor=#23445D;strokeColor=#FFFFFF;strokeWidth=2;fontColor=#FFFFFF;fontStyle=1" parent="1" vertex="1">
          <mxGeometry x="786.5000000000016" y="360.0000000000001" width="20" height="20" as="geometry" />
        </mxCell>
        <mxCell id="11" value="S" style="fillColor=#23445D;strokeColor=#FFFFFF;strokeWidth=2;fontColor=#FFFFFF;fontStyle=1" parent="1" vertex="1">
          <mxGeometry x="806.5000000000016" y="360.0000000000001" width="20" height="20" as="geometry" />
        </mxCell>
        <mxCell id="16" value="M" style="fillColor=#23445D;strokeColor=#FFFFFF;strokeWidth=2;fontColor=#FFFFFF;fontStyle=1" parent="1" vertex="1">
          <mxGeometry x="826.5000000000018" y="360.0000000000001" width="20" height="20" as="geometry" />
        </mxCell>
        <mxCell id="17" value="T" style="fillColor=#23445D;strokeColor=#FFFFFF;strokeWidth=2;fontColor=#FFFFFF;fontStyle=1" parent="1" vertex="1">
          <mxGeometry x="846.5000000000018" y="360.0000000000001" width="20" height="20" as="geometry" />
        </mxCell>
        <mxCell id="18" value="W" style="fillColor=#23445D;strokeColor=#FFFFFF;strokeWidth=2;fontColor=#FFFFFF;fontStyle=1" parent="1" vertex="1">
          <mxGeometry x="866.5000000000018" y="360.0000000000001" width="20" height="20" as="geometry" />
        </mxCell>
        <mxCell id="19" value="T" style="fillColor=#23445D;strokeColor=#FFFFFF;strokeWidth=2;fontColor=#FFFFFF;fontStyle=1" parent="1" vertex="1">
          <mxGeometry x="886.5000000000018" y="360.0000000000001" width="20" height="20" as="geometry" />
        </mxCell>
        <mxCell id="20" value="F" style="fillColor=#23445D;strokeColor=#FFFFFF;strokeWidth=2;fontColor=#FFFFFF;fontStyle=1" parent="1" vertex="1">
          <mxGeometry x="906.5000000000016" y="360.0000000000001" width="20" height="20" as="geometry" />
        </mxCell>
        <mxCell id="21" value="S" style="fillColor=#23445D;strokeColor=#FFFFFF;strokeWidth=2;fontColor=#FFFFFF;fontStyle=1" parent="1" vertex="1">
          <mxGeometry x="926.5000000000016" y="360.0000000000001" width="20" height="20" as="geometry" />
        </mxCell>
        <mxCell id="22" value="S" style="fillColor=#23445D;strokeColor=#FFFFFF;strokeWidth=2;fontColor=#FFFFFF;fontStyle=1" parent="1" vertex="1">
          <mxGeometry x="946.5000000000016" y="360.0000000000001" width="20" height="20" as="geometry" />
        </mxCell>
        <mxCell id="24" value="M" style="fillColor=#23445D;strokeColor=#FFFFFF;strokeWidth=2;fontColor=#FFFFFF;fontStyle=1" parent="1" vertex="1">
          <mxGeometry x="966.5000000000018" y="360.00000000000006" width="20" height="20" as="geometry" />
        </mxCell>
        <mxCell id="25" value="T" style="fillColor=#23445D;strokeColor=#FFFFFF;strokeWidth=2;fontColor=#FFFFFF;fontStyle=1" parent="1" vertex="1">
          <mxGeometry x="986.5000000000018" y="360.00000000000006" width="20" height="20" as="geometry" />
        </mxCell>
        <mxCell id="26" value="W" style="fillColor=#23445D;strokeColor=#FFFFFF;strokeWidth=2;fontColor=#FFFFFF;fontStyle=1" parent="1" vertex="1">
          <mxGeometry x="1006.5000000000018" y="360.00000000000006" width="20" height="20" as="geometry" />
        </mxCell>
        <mxCell id="27" value="T" style="fillColor=#23445D;strokeColor=#FFFFFF;strokeWidth=2;fontColor=#FFFFFF;fontStyle=1" parent="1" vertex="1">
          <mxGeometry x="1026.5000000000018" y="360.00000000000006" width="20" height="20" as="geometry" />
        </mxCell>
        <mxCell id="28" value="F" style="fillColor=#23445D;strokeColor=#FFFFFF;strokeWidth=2;fontColor=#FFFFFF;fontStyle=1" parent="1" vertex="1">
          <mxGeometry x="1046.5000000000016" y="360.00000000000006" width="20" height="20" as="geometry" />
        </mxCell>
        <mxCell id="29" value="S" style="fillColor=#23445D;strokeColor=#FFFFFF;strokeWidth=2;fontColor=#FFFFFF;fontStyle=1" parent="1" vertex="1">
          <mxGeometry x="1066.5000000000016" y="360.00000000000006" width="20" height="20" as="geometry" />
        </mxCell>
        <mxCell id="30" value="S" style="fillColor=#23445D;strokeColor=#FFFFFF;strokeWidth=2;fontColor=#FFFFFF;fontStyle=1" parent="1" vertex="1">
          <mxGeometry x="1086.5000000000016" y="360.00000000000006" width="20" height="20" as="geometry" />
        </mxCell>
        <mxCell id="32" value="M" style="fillColor=#23445D;strokeColor=#FFFFFF;strokeWidth=2;fontColor=#FFFFFF;fontStyle=1" parent="1" vertex="1">
          <mxGeometry x="1106.5000000000018" y="360.00000000000006" width="20" height="20" as="geometry" />
        </mxCell>
        <mxCell id="33" value="T" style="fillColor=#23445D;strokeColor=#FFFFFF;strokeWidth=2;fontColor=#FFFFFF;fontStyle=1" parent="1" vertex="1">
          <mxGeometry x="1126.5000000000018" y="360.00000000000006" width="20" height="20" as="geometry" />
        </mxCell>
        <mxCell id="34" value="W" style="fillColor=#23445D;strokeColor=#FFFFFF;strokeWidth=2;fontColor=#FFFFFF;fontStyle=1" parent="1" vertex="1">
          <mxGeometry x="1146.5000000000018" y="360.00000000000006" width="20" height="20" as="geometry" />
        </mxCell>
        <mxCell id="35" value="T" style="fillColor=#23445D;strokeColor=#FFFFFF;strokeWidth=2;fontColor=#FFFFFF;fontStyle=1" parent="1" vertex="1">
          <mxGeometry x="1166.5000000000018" y="360.00000000000006" width="20" height="20" as="geometry" />
        </mxCell>
        <mxCell id="36" value="F" style="fillColor=#23445D;strokeColor=#FFFFFF;strokeWidth=2;fontColor=#FFFFFF;fontStyle=1" parent="1" vertex="1">
          <mxGeometry x="1186.5000000000016" y="360" width="20" height="20" as="geometry" />
        </mxCell>
        <mxCell id="37" value="S" style="fillColor=#23445D;strokeColor=#FFFFFF;strokeWidth=2;fontColor=#FFFFFF;fontStyle=1" parent="1" vertex="1">
          <mxGeometry x="1206.5000000000016" y="360" width="20" height="20" as="geometry" />
        </mxCell>
        <mxCell id="38" value="S" style="fillColor=#23445D;strokeColor=#FFFFFF;strokeWidth=2;fontColor=#FFFFFF;fontStyle=1" parent="1" vertex="1">
          <mxGeometry x="1226.5000000000016" y="360" width="20" height="20" as="geometry" />
        </mxCell>
        <mxCell id="40" value="M" style="fillColor=#23445D;strokeColor=#FFFFFF;strokeWidth=2;fontColor=#FFFFFF;fontStyle=1" parent="1" vertex="1">
          <mxGeometry x="1246.5000000000018" y="360.00000000000006" width="20" height="20" as="geometry" />
        </mxCell>
        <mxCell id="41" value="T" style="fillColor=#23445D;strokeColor=#FFFFFF;strokeWidth=2;fontColor=#FFFFFF;fontStyle=1" parent="1" vertex="1">
          <mxGeometry x="1266.5000000000018" y="360.00000000000006" width="20" height="20" as="geometry" />
        </mxCell>
        <mxCell id="42" value="W" style="fillColor=#23445D;strokeColor=#FFFFFF;strokeWidth=2;fontColor=#FFFFFF;fontStyle=1" parent="1" vertex="1">
          <mxGeometry x="1286.5000000000018" y="360.00000000000006" width="20" height="20" as="geometry" />
        </mxCell>
        <mxCell id="43" value="T" style="fillColor=#23445D;strokeColor=#FFFFFF;strokeWidth=2;fontColor=#FFFFFF;fontStyle=1" parent="1" vertex="1">
          <mxGeometry x="1306.5000000000018" y="360.00000000000006" width="20" height="20" as="geometry" />
        </mxCell>
        <mxCell id="44" value="F" style="fillColor=#23445D;strokeColor=#FFFFFF;strokeWidth=2;fontColor=#FFFFFF;fontStyle=1" parent="1" vertex="1">
          <mxGeometry x="1326.5000000000016" y="360" width="20" height="20" as="geometry" />
        </mxCell>
        <mxCell id="45" value="S" style="fillColor=#23445D;strokeColor=#FFFFFF;strokeWidth=2;fontColor=#FFFFFF;fontStyle=1" parent="1" vertex="1">
          <mxGeometry x="1346.5000000000016" y="360" width="20" height="20" as="geometry" />
        </mxCell>
        <mxCell id="46" value="S" style="fillColor=#23445D;strokeColor=#FFFFFF;strokeWidth=2;fontColor=#FFFFFF;fontStyle=1" parent="1" vertex="1">
          <mxGeometry x="1366.5000000000016" y="360" width="20" height="20" as="geometry" />
        </mxCell>
        <mxCell id="48" value="M" style="fillColor=#23445D;strokeColor=#FFFFFF;strokeWidth=2;fontColor=#FFFFFF;fontStyle=1" parent="1" vertex="1">
          <mxGeometry x="1386.5000000000018" y="360" width="20" height="20" as="geometry" />
        </mxCell>
        <mxCell id="49" value="T" style="fillColor=#23445D;strokeColor=#FFFFFF;strokeWidth=2;fontColor=#FFFFFF;fontStyle=1" parent="1" vertex="1">
          <mxGeometry x="1406.5000000000018" y="360" width="20" height="20" as="geometry" />
        </mxCell>
        <mxCell id="50" value="W" style="fillColor=#23445D;strokeColor=#FFFFFF;strokeWidth=2;fontColor=#FFFFFF;fontStyle=1" parent="1" vertex="1">
          <mxGeometry x="1426.5000000000018" y="360" width="20" height="20" as="geometry" />
        </mxCell>
        <mxCell id="51" value="T" style="fillColor=#23445D;strokeColor=#FFFFFF;strokeWidth=2;fontColor=#FFFFFF;fontStyle=1" parent="1" vertex="1">
          <mxGeometry x="1446.5000000000018" y="360" width="20" height="20" as="geometry" />
        </mxCell>
        <mxCell id="52" value="F" style="fillColor=#23445D;strokeColor=#FFFFFF;strokeWidth=2;fontColor=#FFFFFF;fontStyle=1" parent="1" vertex="1">
          <mxGeometry x="1466.5000000000016" y="360" width="20" height="20" as="geometry" />
        </mxCell>
        <mxCell id="53" value="S" style="fillColor=#23445D;strokeColor=#FFFFFF;strokeWidth=2;fontColor=#FFFFFF;fontStyle=1" parent="1" vertex="1">
          <mxGeometry x="1486.5000000000016" y="360" width="20" height="20" as="geometry" />
        </mxCell>
        <mxCell id="54" value="S" style="fillColor=#23445D;strokeColor=#FFFFFF;strokeWidth=2;fontColor=#FFFFFF;fontStyle=1" parent="1" vertex="1">
          <mxGeometry x="1506.5000000000016" y="360" width="20" height="20" as="geometry" />
        </mxCell>
        <mxCell id="56" value="M" style="fillColor=#23445D;strokeColor=#FFFFFF;strokeWidth=2;fontColor=#FFFFFF;fontStyle=1" parent="1" vertex="1">
          <mxGeometry x="1526.5000000000018" y="360.0000000000001" width="20" height="20" as="geometry" />
        </mxCell>
        <mxCell id="57" value="T" style="fillColor=#23445D;strokeColor=#FFFFFF;strokeWidth=2;fontColor=#FFFFFF;fontStyle=1" parent="1" vertex="1">
          <mxGeometry x="1546.5000000000018" y="360.0000000000001" width="20" height="20" as="geometry" />
        </mxCell>
        <mxCell id="58" value="W" style="fillColor=#23445D;strokeColor=#FFFFFF;strokeWidth=2;fontColor=#FFFFFF;fontStyle=1" parent="1" vertex="1">
          <mxGeometry x="1566.5000000000018" y="360.0000000000001" width="20" height="20" as="geometry" />
        </mxCell>
        <mxCell id="59" value="T" style="fillColor=#23445D;strokeColor=#FFFFFF;strokeWidth=2;fontColor=#FFFFFF;fontStyle=1" parent="1" vertex="1">
          <mxGeometry x="1586.5000000000018" y="360.0000000000001" width="20" height="20" as="geometry" />
        </mxCell>
        <mxCell id="60" value="F" style="fillColor=#23445D;strokeColor=#FFFFFF;strokeWidth=2;fontColor=#FFFFFF;fontStyle=1" parent="1" vertex="1">
          <mxGeometry x="1606.5000000000016" y="360.0000000000001" width="20" height="20" as="geometry" />
        </mxCell>
        <mxCell id="61" value="S" style="fillColor=#23445D;strokeColor=#FFFFFF;strokeWidth=2;fontColor=#FFFFFF;fontStyle=1" parent="1" vertex="1">
          <mxGeometry x="1626.5000000000016" y="360.0000000000001" width="20" height="20" as="geometry" />
        </mxCell>
        <mxCell id="62" value="S" style="fillColor=#23445D;strokeColor=#FFFFFF;strokeWidth=2;fontColor=#FFFFFF;fontStyle=1" parent="1" vertex="1">
          <mxGeometry x="1646.5000000000016" y="360.0000000000001" width="20" height="20" as="geometry" />
        </mxCell>
        <mxCell id="E6Fm2i0nhL4S2BmNDyQJ-417" value="M" style="fillColor=#23445D;strokeColor=#FFFFFF;strokeWidth=2;fontColor=#FFFFFF;fontStyle=1" vertex="1" parent="1">
          <mxGeometry x="1666.5000000000018" y="360.00000000000006" width="20" height="20" as="geometry" />
        </mxCell>
        <mxCell id="E6Fm2i0nhL4S2BmNDyQJ-418" value="T" style="fillColor=#23445D;strokeColor=#FFFFFF;strokeWidth=2;fontColor=#FFFFFF;fontStyle=1" vertex="1" parent="1">
          <mxGeometry x="1686.5000000000018" y="360.00000000000006" width="20" height="20" as="geometry" />
        </mxCell>
        <mxCell id="E6Fm2i0nhL4S2BmNDyQJ-419" value="W" style="fillColor=#23445D;strokeColor=#FFFFFF;strokeWidth=2;fontColor=#FFFFFF;fontStyle=1" vertex="1" parent="1">
          <mxGeometry x="1706.5000000000018" y="360.00000000000006" width="20" height="20" as="geometry" />
        </mxCell>
        <mxCell id="E6Fm2i0nhL4S2BmNDyQJ-420" value="T" style="fillColor=#23445D;strokeColor=#FFFFFF;strokeWidth=2;fontColor=#FFFFFF;fontStyle=1" vertex="1" parent="1">
          <mxGeometry x="1726.5000000000018" y="360.00000000000006" width="20" height="20" as="geometry" />
        </mxCell>
        <mxCell id="E6Fm2i0nhL4S2BmNDyQJ-421" value="F" style="fillColor=#23445D;strokeColor=#FFFFFF;strokeWidth=2;fontColor=#FFFFFF;fontStyle=1" vertex="1" parent="1">
          <mxGeometry x="1746.5000000000016" y="360" width="20" height="20" as="geometry" />
        </mxCell>
        <mxCell id="E6Fm2i0nhL4S2BmNDyQJ-422" value="S" style="fillColor=#23445D;strokeColor=#FFFFFF;strokeWidth=2;fontColor=#FFFFFF;fontStyle=1" vertex="1" parent="1">
          <mxGeometry x="1766.5000000000016" y="360" width="20" height="20" as="geometry" />
        </mxCell>
        <mxCell id="E6Fm2i0nhL4S2BmNDyQJ-423" value="S" style="fillColor=#23445D;strokeColor=#FFFFFF;strokeWidth=2;fontColor=#FFFFFF;fontStyle=1" vertex="1" parent="1">
          <mxGeometry x="1786.5000000000016" y="360" width="20" height="20" as="geometry" />
        </mxCell>
        <mxCell id="E6Fm2i0nhL4S2BmNDyQJ-425" value="M" style="fillColor=#23445D;strokeColor=#FFFFFF;strokeWidth=2;fontColor=#FFFFFF;fontStyle=1" vertex="1" parent="1">
          <mxGeometry x="1806.5000000000018" y="360.00000000000006" width="20" height="20" as="geometry" />
        </mxCell>
        <mxCell id="E6Fm2i0nhL4S2BmNDyQJ-426" value="T" style="fillColor=#23445D;strokeColor=#FFFFFF;strokeWidth=2;fontColor=#FFFFFF;fontStyle=1" vertex="1" parent="1">
          <mxGeometry x="1826.5000000000018" y="360.00000000000006" width="20" height="20" as="geometry" />
        </mxCell>
        <mxCell id="E6Fm2i0nhL4S2BmNDyQJ-427" value="W" style="fillColor=#23445D;strokeColor=#FFFFFF;strokeWidth=2;fontColor=#FFFFFF;fontStyle=1" vertex="1" parent="1">
          <mxGeometry x="1846.5000000000018" y="360.00000000000006" width="20" height="20" as="geometry" />
        </mxCell>
        <mxCell id="E6Fm2i0nhL4S2BmNDyQJ-428" value="T" style="fillColor=#23445D;strokeColor=#FFFFFF;strokeWidth=2;fontColor=#FFFFFF;fontStyle=1" vertex="1" parent="1">
          <mxGeometry x="1866.5000000000018" y="360.00000000000006" width="20" height="20" as="geometry" />
        </mxCell>
        <mxCell id="E6Fm2i0nhL4S2BmNDyQJ-429" value="F" style="fillColor=#23445D;strokeColor=#FFFFFF;strokeWidth=2;fontColor=#FFFFFF;fontStyle=1" vertex="1" parent="1">
          <mxGeometry x="1886.5000000000016" y="360" width="20" height="20" as="geometry" />
        </mxCell>
        <mxCell id="E6Fm2i0nhL4S2BmNDyQJ-430" value="S" style="fillColor=#23445D;strokeColor=#FFFFFF;strokeWidth=2;fontColor=#FFFFFF;fontStyle=1" vertex="1" parent="1">
          <mxGeometry x="1906.5000000000016" y="360" width="20" height="20" as="geometry" />
        </mxCell>
        <mxCell id="E6Fm2i0nhL4S2BmNDyQJ-431" value="S" style="fillColor=#23445D;strokeColor=#FFFFFF;strokeWidth=2;fontColor=#FFFFFF;fontStyle=1" vertex="1" parent="1">
          <mxGeometry x="1926.5000000000016" y="360" width="20" height="20" as="geometry" />
        </mxCell>
        <mxCell id="E6Fm2i0nhL4S2BmNDyQJ-433" value="M" style="fillColor=#23445D;strokeColor=#FFFFFF;strokeWidth=2;fontColor=#FFFFFF;fontStyle=1" vertex="1" parent="1">
          <mxGeometry x="1946.5000000000018" y="360" width="20" height="20" as="geometry" />
        </mxCell>
        <mxCell id="E6Fm2i0nhL4S2BmNDyQJ-434" value="T" style="fillColor=#23445D;strokeColor=#FFFFFF;strokeWidth=2;fontColor=#FFFFFF;fontStyle=1" vertex="1" parent="1">
          <mxGeometry x="1966.5000000000018" y="360" width="20" height="20" as="geometry" />
        </mxCell>
        <mxCell id="E6Fm2i0nhL4S2BmNDyQJ-435" value="W" style="fillColor=#23445D;strokeColor=#FFFFFF;strokeWidth=2;fontColor=#FFFFFF;fontStyle=1" vertex="1" parent="1">
          <mxGeometry x="1986.5000000000018" y="360" width="20" height="20" as="geometry" />
        </mxCell>
        <mxCell id="E6Fm2i0nhL4S2BmNDyQJ-436" value="T" style="fillColor=#23445D;strokeColor=#FFFFFF;strokeWidth=2;fontColor=#FFFFFF;fontStyle=1" vertex="1" parent="1">
          <mxGeometry x="2006.5000000000018" y="360" width="20" height="20" as="geometry" />
        </mxCell>
        <mxCell id="E6Fm2i0nhL4S2BmNDyQJ-437" value="F" style="fillColor=#23445D;strokeColor=#FFFFFF;strokeWidth=2;fontColor=#FFFFFF;fontStyle=1" vertex="1" parent="1">
          <mxGeometry x="2026.5000000000016" y="360" width="20" height="20" as="geometry" />
        </mxCell>
        <mxCell id="E6Fm2i0nhL4S2BmNDyQJ-438" value="S" style="fillColor=#23445D;strokeColor=#FFFFFF;strokeWidth=2;fontColor=#FFFFFF;fontStyle=1" vertex="1" parent="1">
          <mxGeometry x="2046.5000000000016" y="360" width="20" height="20" as="geometry" />
        </mxCell>
        <mxCell id="E6Fm2i0nhL4S2BmNDyQJ-439" value="S" style="fillColor=#23445D;strokeColor=#FFFFFF;strokeWidth=2;fontColor=#FFFFFF;fontStyle=1" vertex="1" parent="1">
          <mxGeometry x="2066.500000000002" y="360" width="20" height="20" as="geometry" />
        </mxCell>
        <mxCell id="E6Fm2i0nhL4S2BmNDyQJ-441" value="M" style="fillColor=#23445D;strokeColor=#FFFFFF;strokeWidth=2;fontColor=#FFFFFF;fontStyle=1" vertex="1" parent="1">
          <mxGeometry x="2086.500000000002" y="360.0000000000001" width="20" height="20" as="geometry" />
        </mxCell>
        <mxCell id="E6Fm2i0nhL4S2BmNDyQJ-442" value="T" style="fillColor=#23445D;strokeColor=#FFFFFF;strokeWidth=2;fontColor=#FFFFFF;fontStyle=1" vertex="1" parent="1">
          <mxGeometry x="2106.500000000002" y="360.0000000000001" width="20" height="20" as="geometry" />
        </mxCell>
        <mxCell id="E6Fm2i0nhL4S2BmNDyQJ-443" value="W" style="fillColor=#23445D;strokeColor=#FFFFFF;strokeWidth=2;fontColor=#FFFFFF;fontStyle=1" vertex="1" parent="1">
          <mxGeometry x="2126.500000000002" y="360.0000000000001" width="20" height="20" as="geometry" />
        </mxCell>
        <mxCell id="E6Fm2i0nhL4S2BmNDyQJ-444" value="T" style="fillColor=#23445D;strokeColor=#FFFFFF;strokeWidth=2;fontColor=#FFFFFF;fontStyle=1" vertex="1" parent="1">
          <mxGeometry x="2146.500000000002" y="360.0000000000001" width="20" height="20" as="geometry" />
        </mxCell>
        <mxCell id="E6Fm2i0nhL4S2BmNDyQJ-445" value="F" style="fillColor=#23445D;strokeColor=#FFFFFF;strokeWidth=2;fontColor=#FFFFFF;fontStyle=1" vertex="1" parent="1">
          <mxGeometry x="2166.500000000002" y="360.0000000000001" width="20" height="20" as="geometry" />
        </mxCell>
        <mxCell id="E6Fm2i0nhL4S2BmNDyQJ-446" value="S" style="fillColor=#23445D;strokeColor=#FFFFFF;strokeWidth=2;fontColor=#FFFFFF;fontStyle=1" vertex="1" parent="1">
          <mxGeometry x="2186.500000000002" y="360.0000000000001" width="20" height="20" as="geometry" />
        </mxCell>
        <mxCell id="E6Fm2i0nhL4S2BmNDyQJ-447" value="S" style="fillColor=#23445D;strokeColor=#FFFFFF;strokeWidth=2;fontColor=#FFFFFF;fontStyle=1" vertex="1" parent="1">
          <mxGeometry x="2206.500000000002" y="360.0000000000001" width="20" height="20" as="geometry" />
        </mxCell>
        <mxCell id="E6Fm2i0nhL4S2BmNDyQJ-449" value="M" style="fillColor=#23445D;strokeColor=#FFFFFF;strokeWidth=2;fontColor=#FFFFFF;fontStyle=1" vertex="1" parent="1">
          <mxGeometry x="2226.500000000002" y="360.00000000000006" width="20" height="20" as="geometry" />
        </mxCell>
        <mxCell id="E6Fm2i0nhL4S2BmNDyQJ-450" value="T" style="fillColor=#23445D;strokeColor=#FFFFFF;strokeWidth=2;fontColor=#FFFFFF;fontStyle=1" vertex="1" parent="1">
          <mxGeometry x="2246.500000000002" y="360.00000000000006" width="20" height="20" as="geometry" />
        </mxCell>
        <mxCell id="E6Fm2i0nhL4S2BmNDyQJ-451" value="W" style="fillColor=#23445D;strokeColor=#FFFFFF;strokeWidth=2;fontColor=#FFFFFF;fontStyle=1" vertex="1" parent="1">
          <mxGeometry x="2266.500000000002" y="360.00000000000006" width="20" height="20" as="geometry" />
        </mxCell>
        <mxCell id="E6Fm2i0nhL4S2BmNDyQJ-452" value="T" style="fillColor=#23445D;strokeColor=#FFFFFF;strokeWidth=2;fontColor=#FFFFFF;fontStyle=1" vertex="1" parent="1">
          <mxGeometry x="2286.500000000002" y="360.00000000000006" width="20" height="20" as="geometry" />
        </mxCell>
        <mxCell id="E6Fm2i0nhL4S2BmNDyQJ-453" value="F" style="fillColor=#23445D;strokeColor=#FFFFFF;strokeWidth=2;fontColor=#FFFFFF;fontStyle=1" vertex="1" parent="1">
          <mxGeometry x="2306.500000000002" y="360" width="20" height="20" as="geometry" />
        </mxCell>
        <mxCell id="E6Fm2i0nhL4S2BmNDyQJ-454" value="S" style="fillColor=#23445D;strokeColor=#FFFFFF;strokeWidth=2;fontColor=#FFFFFF;fontStyle=1" vertex="1" parent="1">
          <mxGeometry x="2326.500000000002" y="360" width="20" height="20" as="geometry" />
        </mxCell>
        <mxCell id="E6Fm2i0nhL4S2BmNDyQJ-455" value="S" style="fillColor=#23445D;strokeColor=#FFFFFF;strokeWidth=2;fontColor=#FFFFFF;fontStyle=1" vertex="1" parent="1">
          <mxGeometry x="2346.500000000002" y="360" width="20" height="20" as="geometry" />
        </mxCell>
        <mxCell id="E6Fm2i0nhL4S2BmNDyQJ-457" value="M" style="fillColor=#23445D;strokeColor=#FFFFFF;strokeWidth=2;fontColor=#FFFFFF;fontStyle=1" vertex="1" parent="1">
          <mxGeometry x="2366.500000000002" y="360.00000000000006" width="20" height="20" as="geometry" />
        </mxCell>
        <mxCell id="E6Fm2i0nhL4S2BmNDyQJ-458" value="T" style="fillColor=#23445D;strokeColor=#FFFFFF;strokeWidth=2;fontColor=#FFFFFF;fontStyle=1" vertex="1" parent="1">
          <mxGeometry x="2386.500000000002" y="360.00000000000006" width="20" height="20" as="geometry" />
        </mxCell>
        <mxCell id="E6Fm2i0nhL4S2BmNDyQJ-459" value="W" style="fillColor=#23445D;strokeColor=#FFFFFF;strokeWidth=2;fontColor=#FFFFFF;fontStyle=1" vertex="1" parent="1">
          <mxGeometry x="2406.500000000002" y="360.00000000000006" width="20" height="20" as="geometry" />
        </mxCell>
        <mxCell id="E6Fm2i0nhL4S2BmNDyQJ-460" value="T" style="fillColor=#23445D;strokeColor=#FFFFFF;strokeWidth=2;fontColor=#FFFFFF;fontStyle=1" vertex="1" parent="1">
          <mxGeometry x="2426.500000000002" y="360.00000000000006" width="20" height="20" as="geometry" />
        </mxCell>
        <mxCell id="E6Fm2i0nhL4S2BmNDyQJ-461" value="F" style="fillColor=#23445D;strokeColor=#FFFFFF;strokeWidth=2;fontColor=#FFFFFF;fontStyle=1" vertex="1" parent="1">
          <mxGeometry x="2446.500000000002" y="360" width="20" height="20" as="geometry" />
        </mxCell>
        <mxCell id="E6Fm2i0nhL4S2BmNDyQJ-462" value="S" style="fillColor=#23445D;strokeColor=#FFFFFF;strokeWidth=2;fontColor=#FFFFFF;fontStyle=1" vertex="1" parent="1">
          <mxGeometry x="2466.500000000002" y="360" width="20" height="20" as="geometry" />
        </mxCell>
        <mxCell id="E6Fm2i0nhL4S2BmNDyQJ-463" value="S" style="fillColor=#23445D;strokeColor=#FFFFFF;strokeWidth=2;fontColor=#FFFFFF;fontStyle=1" vertex="1" parent="1">
          <mxGeometry x="2486.500000000002" y="360" width="20" height="20" as="geometry" />
        </mxCell>
        <mxCell id="E6Fm2i0nhL4S2BmNDyQJ-465" value="M" style="fillColor=#23445D;strokeColor=#FFFFFF;strokeWidth=2;fontColor=#FFFFFF;fontStyle=1" vertex="1" parent="1">
          <mxGeometry x="2506.500000000002" y="360" width="20" height="20" as="geometry" />
        </mxCell>
        <mxCell id="E6Fm2i0nhL4S2BmNDyQJ-466" value="T" style="fillColor=#23445D;strokeColor=#FFFFFF;strokeWidth=2;fontColor=#FFFFFF;fontStyle=1" vertex="1" parent="1">
          <mxGeometry x="2526.500000000002" y="360" width="20" height="20" as="geometry" />
        </mxCell>
        <mxCell id="E6Fm2i0nhL4S2BmNDyQJ-467" value="W" style="fillColor=#23445D;strokeColor=#FFFFFF;strokeWidth=2;fontColor=#FFFFFF;fontStyle=1" vertex="1" parent="1">
          <mxGeometry x="2546.500000000002" y="360" width="20" height="20" as="geometry" />
        </mxCell>
        <mxCell id="E6Fm2i0nhL4S2BmNDyQJ-468" value="T" style="fillColor=#23445D;strokeColor=#FFFFFF;strokeWidth=2;fontColor=#FFFFFF;fontStyle=1" vertex="1" parent="1">
          <mxGeometry x="2566.500000000002" y="360" width="20" height="20" as="geometry" />
        </mxCell>
        <mxCell id="E6Fm2i0nhL4S2BmNDyQJ-469" value="F" style="fillColor=#23445D;strokeColor=#FFFFFF;strokeWidth=2;fontColor=#FFFFFF;fontStyle=1" vertex="1" parent="1">
          <mxGeometry x="2586.500000000002" y="360" width="20" height="20" as="geometry" />
        </mxCell>
        <mxCell id="E6Fm2i0nhL4S2BmNDyQJ-470" value="S" style="fillColor=#23445D;strokeColor=#FFFFFF;strokeWidth=2;fontColor=#FFFFFF;fontStyle=1" vertex="1" parent="1">
          <mxGeometry x="2606.500000000002" y="360" width="20" height="20" as="geometry" />
        </mxCell>
        <mxCell id="E6Fm2i0nhL4S2BmNDyQJ-471" value="S" style="fillColor=#23445D;strokeColor=#FFFFFF;strokeWidth=2;fontColor=#FFFFFF;fontStyle=1" vertex="1" parent="1">
          <mxGeometry x="2626.500000000002" y="360" width="20" height="20" as="geometry" />
        </mxCell>
        <mxCell id="E6Fm2i0nhL4S2BmNDyQJ-473" value="M" style="fillColor=#23445D;strokeColor=#FFFFFF;strokeWidth=2;fontColor=#FFFFFF;fontStyle=1" vertex="1" parent="1">
          <mxGeometry x="2646.500000000002" y="360.0000000000001" width="20" height="20" as="geometry" />
        </mxCell>
        <mxCell id="E6Fm2i0nhL4S2BmNDyQJ-474" value="T" style="fillColor=#23445D;strokeColor=#FFFFFF;strokeWidth=2;fontColor=#FFFFFF;fontStyle=1" vertex="1" parent="1">
          <mxGeometry x="2666.500000000002" y="360.0000000000001" width="20" height="20" as="geometry" />
        </mxCell>
        <mxCell id="E6Fm2i0nhL4S2BmNDyQJ-475" value="W" style="fillColor=#23445D;strokeColor=#FFFFFF;strokeWidth=2;fontColor=#FFFFFF;fontStyle=1" vertex="1" parent="1">
          <mxGeometry x="2686.500000000002" y="360.0000000000001" width="20" height="20" as="geometry" />
        </mxCell>
        <mxCell id="E6Fm2i0nhL4S2BmNDyQJ-476" value="T" style="fillColor=#23445D;strokeColor=#FFFFFF;strokeWidth=2;fontColor=#FFFFFF;fontStyle=1" vertex="1" parent="1">
          <mxGeometry x="2706.500000000002" y="360.0000000000001" width="20" height="20" as="geometry" />
        </mxCell>
        <mxCell id="E6Fm2i0nhL4S2BmNDyQJ-477" value="F" style="fillColor=#23445D;strokeColor=#FFFFFF;strokeWidth=2;fontColor=#FFFFFF;fontStyle=1" vertex="1" parent="1">
          <mxGeometry x="2726.500000000002" y="360.0000000000001" width="20" height="20" as="geometry" />
        </mxCell>
        <mxCell id="E6Fm2i0nhL4S2BmNDyQJ-478" value="S" style="fillColor=#23445D;strokeColor=#FFFFFF;strokeWidth=2;fontColor=#FFFFFF;fontStyle=1" vertex="1" parent="1">
          <mxGeometry x="2746.500000000002" y="360.0000000000001" width="20" height="20" as="geometry" />
        </mxCell>
        <mxCell id="E6Fm2i0nhL4S2BmNDyQJ-479" value="S" style="fillColor=#23445D;strokeColor=#FFFFFF;strokeWidth=2;fontColor=#FFFFFF;fontStyle=1" vertex="1" parent="1">
          <mxGeometry x="2766.500000000002" y="360.0000000000001" width="20" height="20" as="geometry" />
        </mxCell>
        <mxCell id="4" value="22.05.2006" style="fillColor=#23445D;strokeColor=#FFFFFF;strokeWidth=2;fontColor=#FFFFFF;fontStyle=1" parent="1" vertex="1">
          <mxGeometry x="686.5000000000018" y="340.0000000000001" width="140" height="20" as="geometry" />
        </mxCell>
        <mxCell id="15" value="29.05.2006" style="fillColor=#23445D;strokeColor=#FFFFFF;strokeWidth=2;fontColor=#FFFFFF;fontStyle=1" parent="1" vertex="1">
          <mxGeometry x="826.5000000000018" y="340.0000000000001" width="140" height="20" as="geometry" />
        </mxCell>
        <mxCell id="23" value="5.06.2006" style="fillColor=#23445D;strokeColor=#FFFFFF;strokeWidth=2;fontColor=#FFFFFF;fontStyle=1" parent="1" vertex="1">
          <mxGeometry x="966.5000000000018" y="340.00000000000006" width="140" height="20" as="geometry" />
        </mxCell>
        <mxCell id="31" value="12.06.2006" style="fillColor=#23445D;strokeColor=#FFFFFF;strokeWidth=2;fontColor=#FFFFFF;fontStyle=1" parent="1" vertex="1">
          <mxGeometry x="1106.5000000000018" y="340.00000000000006" width="140" height="20" as="geometry" />
        </mxCell>
        <mxCell id="39" value="19.06.2006" style="fillColor=#23445D;strokeColor=#FFFFFF;strokeWidth=2;fontColor=#FFFFFF;fontStyle=1" parent="1" vertex="1">
          <mxGeometry x="1246.5000000000018" y="340.00000000000006" width="140" height="20" as="geometry" />
        </mxCell>
        <mxCell id="47" value="26.06.2006" style="fillColor=#23445D;strokeColor=#FFFFFF;strokeWidth=2;fontColor=#FFFFFF;fontStyle=1" parent="1" vertex="1">
          <mxGeometry x="1386.5000000000018" y="340" width="140" height="20" as="geometry" />
        </mxCell>
        <mxCell id="55" value="3.07.2006" style="fillColor=#23445D;strokeColor=#FFFFFF;strokeWidth=2;fontColor=#FFFFFF;fontStyle=1" parent="1" vertex="1">
          <mxGeometry x="1526.5000000000018" y="340.0000000000001" width="140" height="20" as="geometry" />
        </mxCell>
        <mxCell id="243" value="" style="shape=mxgraph.arrows.bent_right_arrow;fillColor=#AE4132;strokeColor=none;strokeWidth=2;direction=south" parent="1" vertex="1">
          <mxGeometry x="746.500000000002" y="429.99999999999966" width="10.000000000000341" height="9.99999999999983" as="geometry" />
        </mxCell>
        <mxCell id="244" value="" style="shape=mxgraph.flowchart.process;fillColor=#AE4132;strokeColor=none;strokeWidth=2;opacity=50" parent="1" vertex="1">
          <mxGeometry x="686.31" y="420" width="60" height="20" as="geometry" />
        </mxCell>
        <mxCell id="245" value="" style="shape=mxgraph.flowchart.process;fillColor=#AE4132;strokeColor=none;strokeWidth=2;opacity=50" parent="1" vertex="1">
          <mxGeometry x="746.31" y="440" width="100" height="20" as="geometry" />
        </mxCell>
        <mxCell id="246" value="" style="shape=mxgraph.flowchart.process;fillColor=#AE4132;strokeColor=none;strokeWidth=2;opacity=50" parent="1" vertex="1">
          <mxGeometry x="846.5" y="460" width="39" height="20" as="geometry" />
        </mxCell>
        <mxCell id="247" value="" style="shape=mxgraph.flowchart.process;fillColor=#CCCC00;strokeColor=default;strokeWidth=2;opacity=50" parent="1" vertex="1">
          <mxGeometry x="966" y="500" width="520" height="20" as="geometry" />
        </mxCell>
        <mxCell id="248" value="" style="shape=mxgraph.flowchart.process;fillColor=#CCCC00;strokeColor=none;strokeWidth=2;opacity=50" parent="1" vertex="1">
          <mxGeometry x="966.5" y="520" width="160" height="20" as="geometry" />
        </mxCell>
        <mxCell id="249" value="" style="shape=mxgraph.arrows.bent_right_arrow;fillColor=#AE4132;strokeColor=none;strokeWidth=2;direction=south" parent="1" vertex="1">
          <mxGeometry x="846.500000000001" y="449.99999999999943" width="10.000000000000341" height="9.99999999999983" as="geometry" />
        </mxCell>
        <mxCell id="250" value="" style="shape=mxgraph.arrows.bent_right_arrow;fillColor=#AE4132;strokeColor=none;strokeWidth=2;direction=south" parent="1" vertex="1">
          <mxGeometry x="886.5000000000007" y="470.0000000000001" width="10.000000000000341" height="9.99999999999983" as="geometry" />
        </mxCell>
        <mxCell id="252" value="" style="shape=mxgraph.flowchart.process;fillColor=#AE4132;strokeColor=none;strokeWidth=2;opacity=50" parent="1" vertex="1">
          <mxGeometry x="886.5" y="480" width="39" height="20" as="geometry" />
        </mxCell>
        <mxCell id="255" value="" style="shape=mxgraph.flowchart.process;fillColor=#CCCC00;strokeColor=none;strokeWidth=2;opacity=50" parent="1" vertex="1">
          <mxGeometry x="1306.5" y="560" width="140" height="20" as="geometry" />
        </mxCell>
        <mxCell id="256" value="" style="shape=mxgraph.flowchart.process;fillColor=#CCCC00;strokeColor=none;strokeWidth=2;opacity=50" parent="1" vertex="1">
          <mxGeometry x="1126" y="540" width="180" height="20" as="geometry" />
        </mxCell>
        <mxCell id="257" value="" style="shape=mxgraph.flowchart.process;fillColor=#CCCC00;strokeColor=none;strokeWidth=2;opacity=50" parent="1" vertex="1">
          <mxGeometry x="1445.5" y="580" width="41" height="20" as="geometry" />
        </mxCell>
        <mxCell id="259" value="" style="shape=mxgraph.flowchart.process;fillColor=#CC6600;strokeColor=none;strokeWidth=2;opacity=50" parent="1" vertex="1">
          <mxGeometry x="1526.5" y="620" width="340.5" height="20" as="geometry" />
        </mxCell>
        <mxCell id="260" value="" style="shape=mxgraph.flowchart.process;fillColor=#CC6600;strokeColor=none;strokeWidth=2;opacity=50" parent="1" vertex="1">
          <mxGeometry x="1867" y="640" width="179.5" height="20" as="geometry" />
        </mxCell>
        <mxCell id="261" value="" style="shape=mxgraph.flowchart.process;fillColor=#CC6600;strokeColor=none;strokeWidth=2;opacity=50" parent="1" vertex="1">
          <mxGeometry x="2086.5000000000036" y="660.0000000000001" width="99.99999999999613" height="19.99999999999983" as="geometry" />
        </mxCell>
        <mxCell id="262" value="" style="shape=mxgraph.flowchart.process;fillColor=#1FAEA4;strokeColor=none;strokeWidth=2;opacity=50" parent="1" vertex="1">
          <mxGeometry x="2226.5" y="700" width="19.5" height="20" as="geometry" />
        </mxCell>
        <mxCell id="266" value="" style="shape=mxgraph.flowchart.process;fillColor=#0066CC;strokeColor=default;strokeWidth=2;opacity=50" parent="1" vertex="1">
          <mxGeometry x="2306.5" y="780" width="100" height="20" as="geometry" />
        </mxCell>
        <mxCell id="268" value="" style="shape=mxgraph.flowchart.process;fillColor=#1FAEA4;strokeColor=#000000;strokeWidth=2;opacity=50" parent="1" vertex="1">
          <mxGeometry x="2226.5" y="680" width="80" height="20" as="geometry" />
        </mxCell>
        <mxCell id="269" value="" style="shape=mxgraph.arrows.bent_right_arrow;fillColor=#CCCC00;strokeColor=none;strokeWidth=2;direction=south" parent="1" vertex="1">
          <mxGeometry x="1446.5000000000023" y="570.000000000002" width="10.000000000000341" height="9.99999999999983" as="geometry" />
        </mxCell>
        <mxCell id="272" value="" style="shape=mxgraph.arrows.bent_right_arrow;fillColor=#CC6600;strokeColor=none;strokeWidth=2;direction=south" parent="1" vertex="1">
          <mxGeometry x="1866.5" y="630.0000000000368" width="10.000000000000341" height="9.99999999999983" as="geometry" />
        </mxCell>
        <mxCell id="E6Fm2i0nhL4S2BmNDyQJ-416" value="10.07.2006" style="fillColor=#23445D;strokeColor=#FFFFFF;strokeWidth=2;fontColor=#FFFFFF;fontStyle=1" vertex="1" parent="1">
          <mxGeometry x="1666.5000000000018" y="340.00000000000006" width="140" height="20" as="geometry" />
        </mxCell>
        <mxCell id="E6Fm2i0nhL4S2BmNDyQJ-424" value="17.07.2006" style="fillColor=#23445D;strokeColor=#FFFFFF;strokeWidth=2;fontColor=#FFFFFF;fontStyle=1" vertex="1" parent="1">
          <mxGeometry x="1806.5000000000018" y="340.00000000000006" width="140" height="20" as="geometry" />
        </mxCell>
        <mxCell id="E6Fm2i0nhL4S2BmNDyQJ-432" value="24.07.2006" style="fillColor=#23445D;strokeColor=#FFFFFF;strokeWidth=2;fontColor=#FFFFFF;fontStyle=1" vertex="1" parent="1">
          <mxGeometry x="1946.5000000000018" y="340" width="140" height="20" as="geometry" />
        </mxCell>
        <mxCell id="E6Fm2i0nhL4S2BmNDyQJ-440" value="31.07.2006" style="fillColor=#23445D;strokeColor=#FFFFFF;strokeWidth=2;fontColor=#FFFFFF;fontStyle=1" vertex="1" parent="1">
          <mxGeometry x="2086.500000000002" y="340.0000000000001" width="140" height="20" as="geometry" />
        </mxCell>
        <mxCell id="E6Fm2i0nhL4S2BmNDyQJ-448" value="7.08.2006" style="fillColor=#23445D;strokeColor=#FFFFFF;strokeWidth=2;fontColor=#FFFFFF;fontStyle=1" vertex="1" parent="1">
          <mxGeometry x="2226.500000000002" y="340.00000000000006" width="140" height="20" as="geometry" />
        </mxCell>
        <mxCell id="E6Fm2i0nhL4S2BmNDyQJ-456" value="14.08.2006" style="fillColor=#23445D;strokeColor=#FFFFFF;strokeWidth=2;fontColor=#FFFFFF;fontStyle=1" vertex="1" parent="1">
          <mxGeometry x="2366.500000000002" y="340.00000000000006" width="140" height="20" as="geometry" />
        </mxCell>
        <mxCell id="E6Fm2i0nhL4S2BmNDyQJ-464" value="21.08.2006" style="fillColor=#23445D;strokeColor=#FFFFFF;strokeWidth=2;fontColor=#FFFFFF;fontStyle=1" vertex="1" parent="1">
          <mxGeometry x="2506.500000000002" y="340" width="140" height="20" as="geometry" />
        </mxCell>
        <mxCell id="E6Fm2i0nhL4S2BmNDyQJ-472" value="28.08.2006" style="fillColor=#23445D;strokeColor=#FFFFFF;strokeWidth=2;fontColor=#FFFFFF;fontStyle=1" vertex="1" parent="1">
          <mxGeometry x="2646.500000000002" y="340.0000000000001" width="140" height="20" as="geometry" />
        </mxCell>
        <mxCell id="254" value="" style="shape=mxgraph.flowchart.process;fillColor=#AE4132;strokeColor=#000000;strokeWidth=2;opacity=100" parent="1" vertex="1">
          <mxGeometry x="686.31" y="380" width="1919.69" height="20" as="geometry" />
        </mxCell>
        <mxCell id="258" value="" style="shape=mxgraph.flowchart.process;fillColor=#CC6600;strokeColor=default;strokeWidth=2;opacity=50" parent="1" vertex="1">
          <mxGeometry x="1526.5" y="600" width="660" height="20" as="geometry" />
        </mxCell>
        <mxCell id="242" value="" style="shape=mxgraph.flowchart.process;fillColor=#AE4132;strokeColor=#000000;strokeWidth=2;opacity=50" parent="1" vertex="1">
          <mxGeometry x="687.37" y="400" width="239" height="20" as="geometry" />
        </mxCell>
        <mxCell id="E6Fm2i0nhL4S2BmNDyQJ-546" value="" style="shape=mxgraph.flowchart.process;fillColor=#66CC00;strokeColor=default;strokeWidth=2;opacity=50" vertex="1" parent="1">
          <mxGeometry x="2406" y="860" width="199" height="20" as="geometry" />
        </mxCell>
        <mxCell id="E6Fm2i0nhL4S2BmNDyQJ-727" value="" style="shape=mxgraph.arrows.bent_right_arrow;fillColor=#CCCC00;strokeColor=none;strokeWidth=2;direction=south" vertex="1" parent="1">
          <mxGeometry x="1306.0000000000023" y="550.000000000002" width="10.000000000000341" height="9.99999999999983" as="geometry" />
        </mxCell>
        <mxCell id="E6Fm2i0nhL4S2BmNDyQJ-728" value="" style="shape=mxgraph.arrows.bent_right_arrow;fillColor=#CCCC00;strokeColor=none;strokeWidth=2;direction=south" vertex="1" parent="1">
          <mxGeometry x="1126.5000000000023" y="530.000000000002" width="10.000000000000341" height="9.99999999999983" as="geometry" />
        </mxCell>
        <mxCell id="E6Fm2i0nhL4S2BmNDyQJ-730" value="" style="shape=mxgraph.flowchart.process;fillColor=#1FAEA4;strokeColor=none;strokeWidth=2;opacity=50" vertex="1" parent="1">
          <mxGeometry x="2246" y="720" width="40" height="20" as="geometry" />
        </mxCell>
        <mxCell id="E6Fm2i0nhL4S2BmNDyQJ-731" value="" style="shape=mxgraph.flowchart.process;fillColor=#1FAEA4;strokeColor=none;strokeWidth=2;opacity=50" vertex="1" parent="1">
          <mxGeometry x="2246.5" y="741" width="40" height="19" as="geometry" />
        </mxCell>
        <mxCell id="E6Fm2i0nhL4S2BmNDyQJ-732" value="" style="shape=mxgraph.flowchart.process;fillColor=#1FAEA4;strokeColor=none;strokeWidth=2;opacity=50" vertex="1" parent="1">
          <mxGeometry x="2286" y="760" width="20" height="20" as="geometry" />
        </mxCell>
        <mxCell id="E6Fm2i0nhL4S2BmNDyQJ-733" value="" style="shape=mxgraph.arrows.bent_right_arrow;fillColor=#1FAEA4;strokeColor=none;strokeWidth=2;direction=south" vertex="1" parent="1">
          <mxGeometry x="2246.5" y="710.0000000000023" width="10.000000000000341" height="9.99999999999983" as="geometry" />
        </mxCell>
        <mxCell id="E6Fm2i0nhL4S2BmNDyQJ-734" value="" style="shape=mxgraph.arrows.bent_right_arrow;fillColor=#1FAEA4;strokeColor=none;strokeWidth=2;direction=south" vertex="1" parent="1">
          <mxGeometry x="2286.5" y="750.0000000000023" width="10.000000000000341" height="9.99999999999983" as="geometry" />
        </mxCell>
        <mxCell id="E6Fm2i0nhL4S2BmNDyQJ-735" value="" style="shape=mxgraph.arrows.bent_right_arrow;fillColor=#1FAEA4;strokeColor=none;strokeWidth=2;direction=south" vertex="1" parent="1">
          <mxGeometry x="2306" y="770.0000000000023" width="10.000000000000341" height="9.99999999999983" as="geometry" />
        </mxCell>
        <mxCell id="E6Fm2i0nhL4S2BmNDyQJ-736" value="" style="shape=mxgraph.flowchart.process;fillColor=#0066CC;strokeColor=none;strokeWidth=2;opacity=50" vertex="1" parent="1">
          <mxGeometry x="2306.5" y="801" width="20" height="19" as="geometry" />
        </mxCell>
        <mxCell id="E6Fm2i0nhL4S2BmNDyQJ-737" value="" style="shape=mxgraph.flowchart.process;fillColor=#0066CC;strokeColor=none;strokeWidth=2;opacity=50" vertex="1" parent="1">
          <mxGeometry x="2366.5" y="821" width="20" height="19" as="geometry" />
        </mxCell>
        <mxCell id="E6Fm2i0nhL4S2BmNDyQJ-738" value="" style="shape=mxgraph.flowchart.process;fillColor=#0066CC;strokeColor=none;strokeWidth=2;opacity=50" vertex="1" parent="1">
          <mxGeometry x="2386.5" y="840" width="20" height="19" as="geometry" />
        </mxCell>
        <mxCell id="E6Fm2i0nhL4S2BmNDyQJ-739" value="" style="shape=mxgraph.flowchart.process;fillColor=#66CC00;strokeColor=none;strokeWidth=2;opacity=50" vertex="1" parent="1">
          <mxGeometry x="2406.5" y="880" width="120" height="19" as="geometry" />
        </mxCell>
        <mxCell id="E6Fm2i0nhL4S2BmNDyQJ-742" value="" style="shape=mxgraph.flowchart.process;fillColor=#66CC00;strokeColor=none;strokeWidth=2;opacity=50" vertex="1" parent="1">
          <mxGeometry x="2526.5" y="899" width="59" height="19" as="geometry" />
        </mxCell>
        <mxCell id="E6Fm2i0nhL4S2BmNDyQJ-743" value="" style="shape=mxgraph.flowchart.process;fillColor=#66CC00;strokeColor=none;strokeWidth=2;opacity=50" vertex="1" parent="1">
          <mxGeometry x="2585.5" y="918" width="20" height="21" as="geometry" />
        </mxCell>
        <mxCell id="E6Fm2i0nhL4S2BmNDyQJ-745" value="" style="shape=mxgraph.arrows.bent_right_arrow;fillColor=#66CC00;strokeColor=none;strokeWidth=2;direction=south" vertex="1" parent="1">
          <mxGeometry x="2526.5" y="889.0000000000023" width="10.000000000000341" height="9.99999999999983" as="geometry" />
        </mxCell>
        <mxCell id="E6Fm2i0nhL4S2BmNDyQJ-746" value="" style="shape=mxgraph.arrows.bent_right_arrow;fillColor=#0066CC;strokeColor=none;strokeWidth=2;direction=south" vertex="1" parent="1">
          <mxGeometry x="2386.5" y="830.0000000000023" width="10.000000000000341" height="9.99999999999983" as="geometry" />
        </mxCell>
        <mxCell id="E6Fm2i0nhL4S2BmNDyQJ-747" value="" style="shape=mxgraph.arrows.bent_right_arrow;fillColor=#66CC00;strokeColor=none;strokeWidth=2;direction=south" vertex="1" parent="1">
          <mxGeometry x="2584.5" y="908.0000000000023" width="10.000000000000341" height="9.99999999999983" as="geometry" />
        </mxCell>
        <mxCell id="E6Fm2i0nhL4S2BmNDyQJ-751" value="" style="shape=mxgraph.arrows.bent_right_arrow;fillColor=#0066CC;strokeColor=none;strokeWidth=2;direction=south" vertex="1" parent="1">
          <mxGeometry x="2406.5" y="849.0000000000023" width="10.000000000000341" height="9.99999999999983" as="geometry" />
        </mxCell>
        <mxCell id="E6Fm2i0nhL4S2BmNDyQJ-764" value="" style="group" vertex="1" connectable="0" parent="1">
          <mxGeometry x="79.5" y="1070" width="446" height="470" as="geometry" />
        </mxCell>
        <mxCell id="E6Fm2i0nhL4S2BmNDyQJ-757" value="Експлуатація та супровід" style="rounded=1;whiteSpace=wrap;html=1;fontSize=16;fillColor=#ffe6cc;strokeColor=#d79b00;" vertex="1" parent="E6Fm2i0nhL4S2BmNDyQJ-764">
          <mxGeometry x="266" y="410" width="180" height="60" as="geometry" />
        </mxCell>
        <mxCell id="E6Fm2i0nhL4S2BmNDyQJ-758" value="" style="shape=mxgraph.arrows.bent_right_arrow;fillColor=#dae8fc;strokeColor=#6c8ebf;strokeWidth=2;direction=south" vertex="1" parent="E6Fm2i0nhL4S2BmNDyQJ-764">
          <mxGeometry x="180" y="40" width="30" height="30" as="geometry" />
        </mxCell>
        <mxCell id="E6Fm2i0nhL4S2BmNDyQJ-759" value="" style="shape=mxgraph.arrows.bent_right_arrow;fillColor=#dae8fc;strokeColor=#6c8ebf;strokeWidth=2;direction=south" vertex="1" parent="E6Fm2i0nhL4S2BmNDyQJ-764">
          <mxGeometry x="221.5" y="110" width="30" height="30" as="geometry" />
        </mxCell>
        <mxCell id="E6Fm2i0nhL4S2BmNDyQJ-760" value="" style="shape=mxgraph.arrows.bent_right_arrow;fillColor=#dae8fc;strokeColor=#6c8ebf;strokeWidth=2;direction=south" vertex="1" parent="E6Fm2i0nhL4S2BmNDyQJ-764">
          <mxGeometry x="266" y="180" width="30" height="30" as="geometry" />
        </mxCell>
        <mxCell id="E6Fm2i0nhL4S2BmNDyQJ-761" value="" style="shape=mxgraph.arrows.bent_right_arrow;fillColor=#dae8fc;strokeColor=#6c8ebf;strokeWidth=2;direction=south" vertex="1" parent="E6Fm2i0nhL4S2BmNDyQJ-764">
          <mxGeometry x="306" y="250" width="30" height="30" as="geometry" />
        </mxCell>
        <mxCell id="E6Fm2i0nhL4S2BmNDyQJ-763" value="" style="shape=flexArrow;endArrow=classic;html=1;rounded=0;strokeColor=#6c8ebf;fillColor=#dae8fc;" edge="1" parent="E6Fm2i0nhL4S2BmNDyQJ-764">
          <mxGeometry width="50" height="50" relative="1" as="geometry">
            <mxPoint x="286" y="350" as="sourcePoint" />
            <mxPoint x="326" y="400" as="targetPoint" />
          </mxGeometry>
        </mxCell>
        <mxCell id="E6Fm2i0nhL4S2BmNDyQJ-752" value="Формування вимог" style="rounded=1;whiteSpace=wrap;html=1;fontSize=16;fillColor=#fff2cc;strokeColor=#d6b656;" vertex="1" parent="E6Fm2i0nhL4S2BmNDyQJ-764">
          <mxGeometry width="180" height="60" as="geometry" />
        </mxCell>
        <mxCell id="E6Fm2i0nhL4S2BmNDyQJ-753" value="Проектування" style="rounded=1;whiteSpace=wrap;html=1;fontSize=16;fillColor=#fff2cc;strokeColor=#d6b656;" vertex="1" parent="E6Fm2i0nhL4S2BmNDyQJ-764">
          <mxGeometry x="41.5" y="70" width="180" height="60" as="geometry" />
        </mxCell>
        <mxCell id="E6Fm2i0nhL4S2BmNDyQJ-754" value="Реалізація" style="rounded=1;whiteSpace=wrap;html=1;fontSize=16;fillColor=#fff2cc;strokeColor=#d6b656;" vertex="1" parent="E6Fm2i0nhL4S2BmNDyQJ-764">
          <mxGeometry x="86" y="140" width="180" height="60" as="geometry" />
        </mxCell>
        <mxCell id="E6Fm2i0nhL4S2BmNDyQJ-755" value="Тестування" style="rounded=1;whiteSpace=wrap;html=1;fontSize=16;fillColor=#fff2cc;strokeColor=#d6b656;" vertex="1" parent="E6Fm2i0nhL4S2BmNDyQJ-764">
          <mxGeometry x="126" y="210" width="180" height="60" as="geometry" />
        </mxCell>
        <mxCell id="E6Fm2i0nhL4S2BmNDyQJ-756" value="Впровадження" style="rounded=1;whiteSpace=wrap;html=1;fontSize=16;fillColor=#fff2cc;strokeColor=#d6b656;" vertex="1" parent="E6Fm2i0nhL4S2BmNDyQJ-764">
          <mxGeometry x="171.5" y="280" width="180" height="60" as="geometry" />
        </mxCell>
      </root>
    </mxGraphModel>
  </diagram>
</mxfile>
